<svg id="Grupo_10553" data-name="Grupo 10553" xmlns="http://www.w3.org/2000/svg" width="59.482" height="48.668" viewBox="0 0 59.482 48.668">
  <g id="Grupo_10398" data-name="Grupo 10398">
    <path id="Caminho_8964" data-name="Caminho 8964" d="M3489.616-1733.393v14.135h-59.482v-26.5h20.548l5.408-7.646h33.526v20.008Zm-5.407,9.869v-7.6h-18.223v7.6Z" transform="translate(-3430.134 1767.926)" fill="#84bae2"/>
    <path id="Caminho_8965" data-name="Caminho 8965" d="M3489.616-1775.124v9.388h-5.651v-4.7h-48.181v7.013h-.005v5.338h-5.645v-22.171h25.415l5.407,5.137Z" transform="translate(-3430.134 1780.261)" fill="#558ab1"/>
    <path id="Caminho_8966" data-name="Caminho 8966" d="M3488.76-1757.489v.092h-27.875l-5.407,7.647h-14.9v-5.338h7.014v-7.013h41.173Z" transform="translate(-3434.928 1771.921)" fill="#fff"/>
    <path id="Caminho_8968" data-name="Caminho 8968" d="M3447.591-1762.1l-7.008,7.008v-7.008Z" transform="translate(-3434.933 1771.921)" fill="#fff"/>
    <rect id="Retângulo_12761" data-name="Retângulo 12761" width="22.637" height="9.437" transform="translate(33.645 35.884)" fill="#84bae2"/>
    <rect id="Retângulo_12762" data-name="Retângulo 12762" width="9.193" height="1.622" transform="translate(5.435 34.262)" fill="#84bae2"/>
    <rect id="Retângulo_12763" data-name="Retângulo 12763" width="15.114" height="1.622" transform="translate(5.435 37.955)" fill="#84bae2"/>
    <rect id="Retângulo_12764" data-name="Retângulo 12764" width="15.114" height="1.622" transform="translate(5.435 41.649)" fill="#84bae2"/>
  </g>
  <g id="Grupo_10428" data-name="Grupo 10428" transform="translate(25.497 25.37)">
    <g id="Grupo_10424" data-name="Grupo 10424">
      <path id="Caminho_8969" data-name="Caminho 8969" d="M2716.868,1683.151a2.121,2.121,0,0,1,1.287,3.808h0a2.142,2.142,0,0,1-.6.32c-.052.019-.105.034-.161.049h0a1.492,1.492,0,0,1-.17.037,1.545,1.545,0,0,1-.176.022,1.842,1.842,0,0,1-.357,0,1.541,1.541,0,0,1-.176-.022,1.919,1.919,0,0,1-.335-.086,2.142,2.142,0,0,1-.6-.32h0a2.121,2.121,0,0,1,1.287-3.808Z" transform="translate(-2713.073 -1683.151)" fill="#6196be"/>
      <path id="Caminho_8970" data-name="Caminho 8970" d="M2712.047,1700.87a2.062,2.062,0,0,1-.6.32,1.37,1.37,0,0,1-.161.049h0a1.56,1.56,0,0,1-.17.037,1.542,1.542,0,0,1-.177.021,1.644,1.644,0,0,1-.178.009,1.621,1.621,0,0,1-.178-.009,1.556,1.556,0,0,1-.177-.021,1.923,1.923,0,0,1-.335-.086,2,2,0,0,1-.6-.32,3.794,3.794,0,0,0-2.508,3.565v5.2h1.433v-5.228h.43v5.443a.215.215,0,0,1-.215.215h-.316v5.3h2.248v-6.934h.429v6.934h2.248v-5.3h-.305a.215.215,0,0,1-.215-.215v-5.443h.43v5.228h1.422v-5.2A3.794,3.794,0,0,0,2712.047,1700.87Z" transform="translate(-2706.965 -1697.062)" fill="#6196be"/>
    </g>
    <g id="Grupo_10425" data-name="Grupo 10425" transform="translate(9.455)">
      <path id="Caminho_8971" data-name="Caminho 8971" d="M2760.868,1683.151a2.121,2.121,0,0,1,1.287,3.808h0a2.144,2.144,0,0,1-.6.32c-.052.019-.105.034-.161.049h0a1.488,1.488,0,0,1-.169.037,1.558,1.558,0,0,1-.176.022,1.842,1.842,0,0,1-.357,0,1.545,1.545,0,0,1-.176-.022,1.931,1.931,0,0,1-.335-.086,2.14,2.14,0,0,1-.6-.32h0a2.12,2.12,0,0,1,1.287-3.808Z" transform="translate(-2757.073 -1683.151)" fill="#6196be"/>
      <path id="Caminho_8972" data-name="Caminho 8972" d="M2756.047,1700.87a2.056,2.056,0,0,1-.6.32,1.356,1.356,0,0,1-.161.049h0a1.917,1.917,0,0,1-.346.058,1.644,1.644,0,0,1-.178.009,1.621,1.621,0,0,1-.178-.009,1.541,1.541,0,0,1-.176-.021,1.906,1.906,0,0,1-.335-.086,1.99,1.99,0,0,1-.6-.32,3.794,3.794,0,0,0-2.508,3.565v5.2h1.434v-5.228h.43v5.443a.215.215,0,0,1-.215.215h-.316v5.3h2.248v-6.934h.43v6.934h2.248v-5.3h-.305a.215.215,0,0,1-.215-.215v-5.443h.43v5.228h1.422v-5.2A3.794,3.794,0,0,0,2756.047,1700.87Z" transform="translate(-2750.965 -1697.062)" fill="#6196be"/>
    </g>
    <g id="Grupo_10426" data-name="Grupo 10426" transform="translate(18.91)">
      <path id="Caminho_8973" data-name="Caminho 8973" d="M2804.868,1683.151a2.121,2.121,0,0,1,1.287,3.808h0a2.144,2.144,0,0,1-.6.32c-.052.019-.105.034-.161.049h0a1.492,1.492,0,0,1-.17.037,1.547,1.547,0,0,1-.176.022,1.842,1.842,0,0,1-.357,0,1.556,1.556,0,0,1-.177-.022,1.934,1.934,0,0,1-.335-.086,2.137,2.137,0,0,1-.6-.32h0a2.12,2.12,0,0,1,1.287-3.808Z" transform="translate(-2801.073 -1683.151)" fill="#6196be"/>
      <path id="Caminho_8974" data-name="Caminho 8974" d="M2800.047,1700.87a2.056,2.056,0,0,1-.6.32,1.37,1.37,0,0,1-.161.049h0a1.919,1.919,0,0,1-.346.058,1.654,1.654,0,0,1-.178.009,1.628,1.628,0,0,1-.179-.009,1.536,1.536,0,0,1-.176-.021,1.906,1.906,0,0,1-.335-.086,1.994,1.994,0,0,1-.6-.32,3.8,3.8,0,0,0-2.508,3.565v5.2h1.434v-5.228h.43v5.443a.215.215,0,0,1-.215.215h-.316v5.3h2.248v-6.934h.43v6.934h2.247v-5.3h-.305a.215.215,0,0,1-.215-.215v-5.443h.43v5.228h1.422v-5.2A3.794,3.794,0,0,0,2800.047,1700.87Z" transform="translate(-2794.965 -1697.062)" fill="#6196be"/>
    </g>
  </g>
</svg>
