<svg xmlns="http://www.w3.org/2000/svg" width="36" height="36" viewBox="0 0 36 36">
  <g id="Grupo_11327" data-name="Grupo 11327" transform="translate(-3107 -3921)">
    <rect id="Retângulo_12204" data-name="Retângulo 12204" width="36" height="36" transform="translate(3107 3921)" fill="none"/>
    <g id="Grupo_10093" data-name="Grupo 10093" transform="translate(-3560.808 6367.211)">
      <path id="Caminho_8849" data-name="Caminho 8849" d="M6754.777-2437.6v22.764a4.619,4.619,0,0,0-4.62-4.621,4.622,4.622,0,0,0-4.622,4.621V-2437.6a4.622,4.622,0,0,1,4.622-4.621A4.619,4.619,0,0,1,6754.777-2437.6Z" transform="translate(-50.97)" fill="#00c0b7"/>
      <path id="Caminho_8850" data-name="Caminho 8850" d="M6699.187-2410.575a4.618,4.618,0,0,1,4.62,4.621,4.621,4.621,0,0,1-4.62,4.621h-31.15v-27.385h26.528v22.764A4.622,4.622,0,0,1,6699.187-2410.575Z" transform="translate(0 -8.879)" fill="#d2edef"/>
      <rect id="Retângulo_12526" data-name="Retângulo 12526" width="5.069" height="1.027" transform="matrix(0.707, -0.707, 0.707, 0.707, 6686.14, -2414.626)" fill="#40566b"/>
      <rect id="Retângulo_12527" data-name="Retângulo 12527" width="1.027" height="5.069" transform="translate(6686.14 -2417.484) rotate(-45)" fill="#40566b"/>
      <path id="Caminho_8851" data-name="Caminho 8851" d="M6683.518-2415.763a2.355,2.355,0,0,1-2.353-2.353,2.356,2.356,0,0,1,2.353-2.354,2.357,2.357,0,0,1,2.354,2.354A2.356,2.356,0,0,1,6683.518-2415.763Zm0-3.68a1.328,1.328,0,0,0-1.326,1.327,1.328,1.328,0,0,0,1.326,1.326,1.328,1.328,0,0,0,1.326-1.326A1.328,1.328,0,0,0,6683.518-2419.443Z" transform="translate(-8.634 -14.303)" fill="#40566b"/>
      <path id="Caminho_8852" data-name="Caminho 8852" d="M6690.972-2397.84h-1.027v-1.027h1.027Zm-2.053,0h-1.011l-.016-1.027h1.027Zm-2.26-.326a2.606,2.606,0,0,1-.921-.872l.867-.55a1.568,1.568,0,0,0,.556.526Zm-1.314-2.08c0-.053,0-.107,0-.161v-.309a1.518,1.518,0,0,0-.063-.435l.984-.292a2.541,2.541,0,0,1,.106.727v.309c0,.032,0,.064,0,.1Zm-.46-1.559a1.542,1.542,0,0,0-.655-.39l.289-.985a2.586,2.586,0,0,1,1.093.648Zm-1.53-.451h-1.027v-1.027h1.027Zm-2.054,0h-1.027v-1.027h1.027Zm-2.142-.039a2.573,2.573,0,0,1-1.156-.526l.642-.8a1.546,1.546,0,0,0,.693.316Zm-1.921-1.538a2.549,2.549,0,0,1-.2-.99v-.215h1.028v.215a1.519,1.519,0,0,0,.119.592Zm.828-2.231h-1.028v-.727a2.5,2.5,0,0,1,.028-.374l1.016.15a1.536,1.536,0,0,0-.016.224Zm.312-1.653-.82-.619a2.594,2.594,0,0,1,.99-.793l.426.935A1.555,1.555,0,0,0,6678.378-2407.717Zm16.632-.615h-.873v-1.027h.873c.038,0,.077,0,.114,0l.081,1.024C6695.141-2408.334,6695.075-2408.332,6695.01-2408.332Zm-1.9,0h-1.027v-1.027h1.027Zm-2.054,0h-1.027v-1.027h1.027Zm-2.054,0h-1.027v-1.027H6689Zm-2.054,0h-1.027v-1.027h1.027Zm-2.054,0h-1.027v-1.027h1.027Zm-2.054,0h-1.028v-1.027h1.028Zm-2.054,0h-1.027v-1.027h1.027Zm15.62-.416-.562-.86a1.568,1.568,0,0,0,.519-.562l.9.49A2.6,2.6,0,0,1,6696.408-2408.748Zm1.169-2.162h-1.027v-1.027h1.027Zm-1.037-2a1.53,1.53,0,0,0-.271-.71l.84-.592a2.568,2.568,0,0,1,.451,1.188Zm-.85-1.209a1.521,1.521,0,0,0-.68-.159h-.085v-1.027h.085a2.528,2.528,0,0,1,1.136.267Zm-1.792-.159h-1.027v-1.027h1.027Zm-2.054,0h-1.027v-1.027h1.027Zm-2.054,0h-1.026v-1.027h1.026Zm-2.053,0h-1.027v-1.027h1.027Zm-2.054,0h-1.027v-1.027h1.027Z" transform="translate(-5.92 -17.702)" fill="#40566b"/>
    </g>
  </g>
</svg>
