<svg id="Grupo_10378" data-name="Grupo 10378" xmlns="http://www.w3.org/2000/svg" width="22.284" height="20.676" viewBox="0 0 22.284 20.676">
  <g id="Grupo_10378-2" data-name="Grupo 10378" transform="translate(10.47)">
    <path id="Caminho_8932" data-name="Caminho 8932" d="M4109.2,787.814a5.907,5.907,0,1,1-5.907-5.907A5.906,5.906,0,0,1,4109.2,787.814Z" transform="translate(-4097.382 -781.907)" fill="#00c0b7"/>
    <path id="Caminho_8933" data-name="Caminho 8933" d="M4111.984,798.13a3.371,3.371,0,0,1,5.848.092c0,.045.007.09.007.139v1.086a2.932,2.932,0,0,1-2.933,2.932,2.929,2.929,0,0,1-2.935-2.932V798.36C4111.972,798.281,4111.979,798.205,4111.984,798.13Z" transform="translate(-4108.999 -793.544)" fill="#daf1f3"/>
    <path id="Caminho_8934" data-name="Caminho 8934" d="M4106.4,818.474a2.935,2.935,0,0,0,4.982,0,2.937,2.937,0,0,1,1.979,2.341v0c-.012.012-.022.026-.035.039-.041.047-.083.094-.128.139-.022.027-.049.053-.074.077s-.073.075-.112.11-.087.086-.132.126c-.065.059-.131.116-.2.173s-.149.122-.226.179a5.794,5.794,0,0,1-.744.477c-.045.026-.09.049-.135.071s-.118.059-.177.088l-.013.006-.177.079c-.085.037-.171.069-.258.1-.029.012-.06.022-.09.033-.124.045-.249.084-.377.118-.047.014-.093.026-.141.039-.157.039-.315.073-.477.1-.051.01-.1.016-.15.024-.083.012-.167.022-.253.029s-.157.014-.236.018c-.021,0-.043,0-.063,0-.092.006-.182.008-.273.008s-.186,0-.277-.008a.526.526,0,0,1-.057,0c-.085,0-.171-.01-.254-.018s-.169-.02-.252-.031l-.145-.024c-.053-.008-.106-.018-.159-.029l-.155-.033h0c-.079-.018-.156-.037-.234-.059s-.153-.043-.228-.067a5.962,5.962,0,0,1-2.708-1.793A2.961,2.961,0,0,1,4106.4,818.474Z" transform="translate(-4102.979 -811.021)" fill="#f6cf76"/>
    <path id="Caminho_8935" data-name="Caminho 8935" d="M4139.552,836.523c.045-.022.09-.045.134-.071A1.372,1.372,0,0,1,4139.552,836.523Z" transform="translate(-4130.958 -825.337)" fill="#ffa685"/>
    <path id="Caminho_8936" data-name="Caminho 8936" d="M4131.257,794.344a2.934,2.934,0,0,1-2.425-1.7,2.834,2.834,0,0,0,.259-.992A2.927,2.927,0,0,1,4131.257,794.344Z" transform="translate(-4122.423 -789.666)" fill="#323954"/>
    <path id="Caminho_8937" data-name="Caminho 8937" d="M4115.192,791.154a2.96,2.96,0,0,1,.522.092,2.835,2.835,0,0,1-.26.992,1.991,1.991,0,1,1-.5-1.1C4115.036,791.142,4115.113,791.148,4115.192,791.154Z" transform="translate(-4109.047 -789.26)" fill="#40566b"/>
    <path id="Caminho_8938" data-name="Caminho 8938" d="M4119.2,808.63h-.9a.2.2,0,0,1,0-.407h.9a.2.2,0,0,1,0,.407Z" transform="translate(-4113.879 -802.86)" fill="#40566b"/>
    <path id="Caminho_8939" data-name="Caminho 8939" d="M4129.645,808.63h-.9a.2.2,0,0,1,0-.407h.9a.2.2,0,0,1,0,.407Z" transform="translate(-4122.192 -802.86)" fill="#40566b"/>
    <path id="Caminho_8940" data-name="Caminho 8940" d="M4123.286,816.27a1.319,1.319,0,0,1-.675-.188.2.2,0,1,1,.209-.35.912.912,0,0,0,1.141-.18.2.2,0,0,1,.31.266A1.3,1.3,0,0,1,4123.286,816.27Z" transform="translate(-4117.391 -808.64)" fill="#40566b"/>
  </g>
  <g id="Grupo_10380" data-name="Grupo 10380" transform="translate(4.17 2.837)">
    <path id="Caminho_8941" data-name="Caminho 8941" d="M4070.658,800.964h-.611v-3.152a1.986,1.986,0,0,1,1.984-1.983h2.307v.611h-2.307a1.374,1.374,0,0,0-1.372,1.372Z" transform="translate(-4069.316 -795.828)" fill="#00c0b7"/>
    <g id="Grupo_10379" data-name="Grupo 10379" transform="translate(0 3.955)">
      <path id="Caminho_8942" data-name="Caminho 8942" d="M4066.461,815.235l1.036,1.037,1.036-1.037v.88l-1.036,1.036-1.036-1.036Z" transform="translate(-4066.461 -815.235)" fill="#00c0b7"/>
    </g>
  </g>
  <g id="Grupo_10382" data-name="Grupo 10382" transform="translate(13.176 13.517)">
    <path id="Caminho_8943" data-name="Caminho 8943" d="M4112.964,856.983h-2.307v-.611h2.307a1.374,1.374,0,0,0,1.373-1.372v-3.152h.61V855A1.985,1.985,0,0,1,4112.964,856.983Z" transform="translate(-4110.657 -851.112)" fill="#00c0b7"/>
    <g id="Grupo_10381" data-name="Grupo 10381" transform="translate(2.949 0)">
      <path id="Caminho_8944" data-name="Caminho 8944" d="M4127.2,850.155l-1.037-1.037-1.036,1.037v-.88l1.036-1.036,1.037,1.036Z" transform="translate(-4125.127 -848.239)" fill="#00c0b7"/>
    </g>
  </g>
  <g id="Grupo_10383" data-name="Grupo 10383" transform="translate(0 10.615)">
    <path id="Caminho_8945" data-name="Caminho 8945" d="M4054.209,844.588a.39.39,0,0,0,.042-.175.455.455,0,0,0-.425-.431.838.838,0,0,0-.861-.69.878.878,0,0,0-.783.444l-.02,0v-4.979h.752l3.337-3.371.527-.533,3.864,3.9h.753V843.5a.318.318,0,0,0-.041-.03.338.338,0,0,0-.029-.021.866.866,0,0,0-.131-.071.949.949,0,0,0-.17-.057c-.022-.006-.045-.01-.068-.014a1.059,1.059,0,0,0-.168-.014.915.915,0,0,0-.809.444.8.8,0,0,0-.088-.006.607.607,0,0,0-.644.558.507.507,0,0,0,.1.3h-.9v-.818h-.691v-3.08h-1.976v3.08h-.692v.818Zm6.245-2.263V840.69h-1.744v1.636Zm-2.943-3.46v-1.4h-1.489v1.4Zm-2.681,3.46V840.69h-1.743v1.636Z" transform="translate(-4050.906 -834.678)" fill="#f6cf76"/>
    <path id="Caminho_8946" data-name="Caminho 8946" d="M4069.873,878.618v.818h-3.359v-.818h3.359Z" transform="translate(-4062.333 -869.526)" fill="#fea856"/>
    <path id="Caminho_8947" data-name="Caminho 8947" d="M4049.492,876.719a.879.879,0,0,1,.783-.444.838.838,0,0,1,.861.69.455.455,0,0,1,.425.431.39.39,0,0,1-.042.175h-2.638a.521.521,0,0,1-.1-.3.594.594,0,0,1,.624-.558c.022,0,.044,0,.064,0h.02Z" transform="translate(-4048.216 -867.66)" fill="#00c0b7"/>
    <path id="Caminho_8948" data-name="Caminho 8948" d="M4087.662,876.719a.914.914,0,0,1,.809-.444,1.061,1.061,0,0,1,.168.014c.023,0,.046.008.068.014a.95.95,0,0,1,.17.057,1.059,1.059,0,0,1,.131.071.3.3,0,0,1,.029.021.359.359,0,0,1,.041.03.741.741,0,0,1,.283.483.462.462,0,0,1,.439.431.394.394,0,0,1-.043.175h-2.726a.506.506,0,0,1-.1-.3.606.606,0,0,1,.644-.558A.8.8,0,0,1,4087.662,876.719Z" transform="translate(-4078.589 -867.66)" fill="#00c0b7"/>
    <rect id="Retângulo_12751" data-name="Retângulo 12751" width="1.976" height="3.08" transform="translate(4.872 6.012)" fill="#40566b"/>
    <path id="Caminho_8949" data-name="Caminho 8949" d="M4090.031,834.707v.707h-.866V834h.866Z" transform="translate(-4080.369 -834)" fill="#f6cf76"/>
    <path id="Caminho_8950" data-name="Caminho 8950" d="M4054.447,837.468l-3.336,3.371H4049.9v-3.371Z" transform="translate(-4049.104 -836.761)" fill="#e24c5d"/>
    <path id="Caminho_8951" data-name="Caminho 8951" d="M4081.961,837.468v3.371h-1.212l-3.337-3.371h2.4v.707h.866v-.707Z" transform="translate(-4071.01 -836.761)" fill="#e24c5d"/>
    <rect id="Retângulo_12752" data-name="Retângulo 12752" width="1.743" height="1.636" transform="translate(2.18 6.012)" fill="#d2edef"/>
    <rect id="Retângulo_12753" data-name="Retângulo 12753" width="1.744" height="1.636" transform="translate(7.804 6.012)" fill="#d2edef"/>
    <rect id="Retângulo_12754" data-name="Retângulo 12754" width="1.489" height="1.396" transform="translate(5.115 2.792)" fill="#d2edef"/>
    <rect id="Retângulo_12755" data-name="Retângulo 12755" width="11.72" height="0.299" transform="translate(0 9.761)" fill="#fea856"/>
  </g>
</svg>
