<svg xmlns="http://www.w3.org/2000/svg" width="125.938" height="134.162" viewBox="0 0 125.938 134.162">
  <g id="Grupo_6371" data-name="Grupo 6371" transform="translate(1581.499 4041.271)">
    <path id="Caminho_6831" data-name="Caminho 6831" d="M-1567.279-3961.2v28.464a15.039,15.039,0,0,1-14.22-14.748A13.487,13.487,0,0,1-1567.279-3961.2Z" transform="translate(0 25.631)" fill="#00c0b7"/>
    <path id="Caminho_6832" data-name="Caminho 6832" d="M-1482.656-3950.03a14.238,14.238,0,0,0-14.233-14.232v-77.009a14.227,14.227,0,0,1,14.233,14.219Z" transform="translate(27.095)" fill="#00c0b7"/>
    <path id="Caminho_6833" data-name="Caminho 6833" d="M-1469.795-3969.665a14.238,14.238,0,0,1,14.233,14.232,14.237,14.237,0,0,1-14.233,14.23l-97.484.226a13.487,13.487,0,0,0-14.22,13.717v-82.925a14.215,14.215,0,0,1,14.22-14.217h97.484Z" transform="translate(0 5.403)" fill="#d2edef"/>
    <path id="Caminho_6834" data-name="Caminho 6834" d="M-1506.721-3986.327h-3.961v-24.833h-54.406v24.833h-3.961v-26.814a1.98,1.98,0,0,1,1.98-1.98h58.367a1.98,1.98,0,0,1,1.98,1.98Z" transform="translate(3.987 8.374)" fill="#40566b"/>
    <path id="Caminho_6835" data-name="Caminho 6835" d="M-1549.6-3964.051h-17.468a1.981,1.981,0,0,1-1.98-1.98v-26.8a1.98,1.98,0,0,1,1.98-1.98h17.468v3.961h-15.487v22.838h15.487Z" transform="translate(3.987 14.878)" fill="#40566b"/>
    <rect id="Retângulo_8455" data-name="Retângulo 8455" width="3.961" height="26.8" transform="translate(-1524.148 -3977.954)" fill="#40566b"/>
    <path id="Caminho_6836" data-name="Caminho 6836" d="M-1512.938-3964.051h-40.9a1.98,1.98,0,0,1-1.98-1.98v-26.8a1.98,1.98,0,0,1,1.98-1.98h40.9a1.98,1.98,0,0,1,1.98,1.98v26.8A1.98,1.98,0,0,1-1512.938-3964.051Zm-38.919-3.961h36.939v-22.838h-36.939Z" transform="translate(8.224 14.878)" fill="#40566b"/>
    <rect id="Retângulo_8456" data-name="Retângulo 8456" width="3.961" height="26.813" transform="translate(-1535.871 -4004.767)" fill="#40566b"/>
    <rect id="Retângulo_8457" data-name="Retângulo 8457" width="3.961" height="53.614" transform="translate(-1491.472 -4004.767)" fill="#40566b"/>
    <rect id="Retângulo_8458" data-name="Retângulo 8458" width="10.998" height="3.961" transform="translate(-1494.984 -3953.134)" fill="#40566b"/>
    <rect id="Retângulo_8459" data-name="Retângulo 8459" width="10.998" height="3.961" transform="translate(-1495.473 -4006.259)" fill="#40566b"/>
  </g>
</svg>
