<svg xmlns="http://www.w3.org/2000/svg" width="20.363" height="18.363" viewBox="0 0 20.363 18.363">
  <g id="Grupo_11473" data-name="Grupo 11473" transform="translate(-2749.004 2747)">
    <g id="Grupo_6099" data-name="Grupo 6099" transform="translate(-2702.83 -4762.201)">
      <rect id="Retângulo_8286" data-name="Retângulo 8286" width="0.575" height="8.243" transform="translate(5461.729 2023.32)" fill="#40566b"/>
      <path id="Caminho_6753" data-name="Caminho 6753" d="M5505.425,2114a1.972,1.972,0,0,1-1.97-1.97v-1.518h.575v1.518a1.4,1.4,0,1,0,2.791,0h.575A1.972,1.972,0,0,1,5505.425,2114Z" transform="translate(-41.726 -80.436)" fill="#40566b"/>
      <path id="Caminho_6754" data-name="Caminho 6754" d="M5451.835,2025.381a10.173,10.173,0,0,1,10.13-10.17,13.494,13.494,0,0,0-3.4,10.09,3.937,3.937,0,0,0-6.728.08Z" transform="translate(0 -0.008)" fill="#e24c5d"/>
      <path id="Caminho_6755" data-name="Caminho 6755" d="M5505.225,2015.211a10.194,10.194,0,0,1,10.13,10.2,3.919,3.919,0,0,0-6.726-.1A13.5,13.5,0,0,0,5505.225,2015.211Z" transform="translate(-43.156 -0.008)" fill="#cd4160"/>
      <path id="Caminho_6756" data-name="Caminho 6756" d="M5490.114,2015.2a13.493,13.493,0,0,1,3.4,10.094c-.021.031-.042.061-.061.094a3.909,3.909,0,0,0-3.395-1.949h-.015a3.949,3.949,0,0,0-3.378,1.949c-.021-.033-.042-.065-.062-.1a13.494,13.494,0,0,1,3.4-10.09l.052,0Z" transform="translate(-28.046)" fill="#f6cf76"/>
    </g>
  </g>
</svg>
