<svg xmlns="http://www.w3.org/2000/svg" width="142.625" height="144.717" viewBox="0 0 142.625 144.717">
  <g id="Grupo_6335" data-name="Grupo 6335" transform="translate(-3049.775 3195.447)">
    <path id="Caminho_6800" data-name="Caminho 6800" d="M3147.557-3195.447h-84.892v70.608l35.541,29.626,17.8,14.842,17.8-14.842,1.967-1.632,33.2-27.674v-49.518Z" transform="translate(5.09)" fill="#d2edef"/>
    <path id="Caminho_6801" data-name="Caminho 6801" d="M3144.936-3174.036h-21.411v-21.411Z" transform="translate(29.121)" fill="#40566b"/>
    <path id="Caminho_6802" data-name="Caminho 6802" d="M3067.754-3166.317v29.977l-17.979-14.982Z" transform="translate(0 11.502)" fill="#40566b"/>
    <path id="Caminho_6803" data-name="Caminho 6803" d="M3157.217-3151.235l-18.343,15.3v-30.6Z" transform="translate(35.182 11.415)" fill="#40566b"/>
    <path id="Caminho_6804" data-name="Caminho 6804" d="M3103.267-3110.979l-53.492,44.455v-88.922Z" transform="translate(0 15.794)" fill="#fea856"/>
    <path id="Caminho_6805" data-name="Caminho 6805" d="M3167.172-3066.52,3113.665-3111l1.967-1.631,51.54-42.822Z" transform="translate(25.228 15.79)" fill="#fea856"/>
    <path id="Caminho_6806" data-name="Caminho 6806" d="M3103.295-3123.587l17.8,14.842,17.8-14.842L3192.4-3079.1H3049.775l53.492-44.455Z" transform="translate(0 28.374)" fill="#f6cf76"/>
    <path id="Caminho_6807" data-name="Caminho 6807" d="M3115.188-3158.743a12.672,12.672,0,0,0-3.78-.53c-6.64,0-12.01,6.264-12.01,13.6,0,3.32,1.66,5.733,4.993,5.733,4.379,0,8.382-5.58,9.22-10.267Zm17.38,4.91c0,11.326-6.346,17.98-13.448,17.98-3.027,0-5.817-2.037-5.592-6.654h-.307c-2.636,4.463-6.124,6.654-10.643,6.654-4.394,0-8.161-3.558-8.161-9.527a17.83,17.83,0,0,1,17.9-17.9,19.971,19.971,0,0,1,8.091,1.576l-2.568,13.684c-1.128,5.733-.222,8.383,2.26,8.466,3.865.07,8.162-5.077,8.162-13.836,0-10.95-6.57-18.816-18.287-18.816-12.317,0-22.666,9.75-22.666,25.093,0,12.61,8.244,20.394,19.416,20.394a23.746,23.746,0,0,0,11.424-2.638l1.2,3.25a27.522,27.522,0,0,1-13.445,3.013c-12.386,0-22.9-9.067-22.9-23.573,0-15.567,10.81-29.014,27.59-29.014C3123.725-3175.677,3132.568-3166.457,3132.568-3153.833Z" transform="translate(13.117 7.806)" fill="#40566b"/>
  </g>
</svg>
