<svg xmlns="http://www.w3.org/2000/svg" width="22.576" height="15.429" viewBox="0 0 22.576 15.429">
  <g id="Grupo_11490" data-name="Grupo 11490" transform="translate(-2749.004 2676.681)">
    <g id="Grupo_6106" data-name="Grupo 6106" transform="translate(4395.57 197.017)">
      <path id="Caminho_6611" data-name="Caminho 6611" d="M-1605.5-2856.631a4.611,4.611,0,0,1,4.61,4.61,4.611,4.611,0,0,1-4.61,4.61,4.611,4.611,0,0,1-4.61-4.61A4.611,4.611,0,0,1-1605.5-2856.631Z" transform="translate(-29.444 -13.786)" fill="#f6cf76"/>
      <path id="Caminho_6612" data-name="Caminho 6612" d="M-1617.032-2858.937a4.611,4.611,0,0,0,4.61-4.61,4.611,4.611,0,0,0-4.61-4.61,4.611,4.611,0,0,0-4.61,4.61A4.611,4.611,0,0,0-1617.032-2858.937Zm0,2.744a7.352,7.352,0,0,1-7.353-7.354,7.353,7.353,0,0,1,7.353-7.353,7.355,7.355,0,0,1,7.353,7.353A7.354,7.354,0,0,1-1617.032-2856.193Z" transform="translate(-17.917 -2.26)" fill="#fea856"/>
      <path id="Caminho_6613" data-name="Caminho 6613" d="M-1540.746-2873.693a.445.445,0,0,0-.07,0c-.173,0-.765.081-1.134,1.122-.529,1.487-1.184,4.346-.279,5.628a1.445,1.445,0,0,0,1.153.619v1.872h.577v-8.951A.3.3,0,0,0-1540.746-2873.693Z" transform="translate(-83.916 0)" fill="#6ab528"/>
      <path id="Caminho_6614" data-name="Caminho 6614" d="M-1643.794-2870.361v1.83c0,.014,0,.027,0,.041h-.806v-1.871h-.577v1.871h-.806c0-.014,0-.027,0-.041v-1.83h-.577v1.83a1.664,1.664,0,0,0,.491,1.185,1.67,1.67,0,0,0,.9.463v5.337h.577v-5.337a1.676,1.676,0,0,0,1.386-1.648v-1.83Z" transform="translate(0 -2.696)" fill="#6ab528"/>
      <path id="Caminho_6615" data-name="Caminho 6615" d="M-1535.842-2821.446a.712.712,0,0,1-.5-.21.7.7,0,0,1-.209-.5v-5.239a.713.713,0,0,1,.713-.713.7.7,0,0,1,.5.21.7.7,0,0,1,.21.5v5.239A.713.713,0,0,1-1535.842-2821.446Z" transform="translate(-88.862 -36.823)" fill="#40566b"/>
      <path id="Caminho_6616" data-name="Caminho 6616" d="M-1640.139-2827.4v5.239a.713.713,0,0,1-.713.713.71.71,0,0,1-.5-.21.709.709,0,0,1-.209-.5v-5.239a.713.713,0,0,1,.713-.713.7.7,0,0,1,.5.21A.712.712,0,0,1-1640.139-2827.4Z" transform="translate(-4.039 -36.823)" fill="#40566b"/>
    </g>
  </g>
</svg>
