<svg xmlns="http://www.w3.org/2000/svg" xmlns:xlink="http://www.w3.org/1999/xlink" width="22.069" height="24.001" viewBox="0 0 22.069 24.001">
  <defs>
    <clipPath id="clip-path">
      <rect id="Retângulo_13398" data-name="Retângulo 13398" width="22.069" height="24.001" fill="none"/>
    </clipPath>
  </defs>
  <g id="Grupo_11298" data-name="Grupo 11298" transform="translate(-13.774 -18.964)">
    <g id="Grupo_11308" data-name="Grupo 11308" transform="translate(13.774 18.964)">
      <g id="Grupo_11305" data-name="Grupo 11305" transform="translate(0 0)" clip-path="url(#clip-path)">
        <path id="Caminho_9681" data-name="Caminho 9681" d="M3.608,37.926v1.8a1.8,1.8,0,1,1-3.608,0V22.979H3.608Z" transform="translate(0 -17.533)" fill="#00c0b7"/>
        <rect id="Retângulo_13385" data-name="Retângulo 13385" width="6.466" height="5.096" transform="translate(5.893 16.333)" fill="#ffda9f"/>
        <rect id="Retângulo_13386" data-name="Retângulo 13386" width="6.466" height="5.06" transform="translate(5.893 4.517)" fill="#ffda9f"/>
        <path id="Caminho_9682" data-name="Caminho 9682" d="M7.61,24H26.071a1.8,1.8,0,0,0,1.8-1.8V0H9.414V22.2A1.8,1.8,0,0,1,7.61,24" transform="translate(-5.806 0)" fill="#daf1f3"/>
        <rect id="Retângulo_13387" data-name="Retângulo 13387" width="6.466" height="5.06" transform="translate(5.893 4.517)" fill="#1e6388"/>
        <path id="Caminho_9683" data-name="Caminho 9683" d="M0,0H6.466V5.1H0Z" transform="translate(5.893 16.333)" fill="#1e6388"/>
        <rect id="Retângulo_13389" data-name="Retângulo 13389" width="13.932" height="0.711" transform="translate(5.893 2.28)" fill="#40566b"/>
        <rect id="Retângulo_13390" data-name="Retângulo 13390" width="5.925" height="0.711" transform="translate(13.899 4.428)" fill="#40566b"/>
        <rect id="Retângulo_13391" data-name="Retângulo 13391" width="5.925" height="0.711" transform="translate(13.899 6.748)" fill="#40566b"/>
        <rect id="Retângulo_13392" data-name="Retângulo 13392" width="5.925" height="0.711" transform="translate(13.899 9.068)" fill="#40566b"/>
        <rect id="Retângulo_13393" data-name="Retângulo 13393" width="13.873" height="0.711" transform="translate(5.952 11.389)" fill="#40566b"/>
        <rect id="Retângulo_13394" data-name="Retângulo 13394" width="13.873" height="0.711" transform="translate(5.952 13.709)" fill="#40566b"/>
        <rect id="Retângulo_13395" data-name="Retângulo 13395" width="5.925" height="0.711" transform="translate(13.899 16.03)" fill="#40566b"/>
        <rect id="Retângulo_13396" data-name="Retângulo 13396" width="5.925" height="0.711" transform="translate(13.899 18.35)" fill="#40566b"/>
        <rect id="Retângulo_13397" data-name="Retângulo 13397" width="5.925" height="0.711" transform="translate(13.899 20.67)" fill="#40566b"/>
      </g>
    </g>
  </g>
</svg>
