<svg xmlns="http://www.w3.org/2000/svg" width="24.621" height="12.519" viewBox="0 0 24.621 12.519">
  <g id="Grupo_11486" data-name="Grupo 11486" transform="translate(729.156 1577.061)">
    <path id="Caminho_6621" data-name="Caminho 6621" d="M-698.175-1569.3v3.27h-5.188c-.992,0-.767-.639-.4-1.01.8-.821,1.573-1.71,1.833-2.022.088-.107.2-.238.639-.238Z" transform="translate(-20.558 -6.36)" fill="#d2edef"/>
    <path id="Caminho_6622" data-name="Caminho 6622" d="M-665.477-1567.109c.8.727.348,1.078-.269,1.078h-5.621v-3.27h2.812C-667.7-1569.144-666.582-1568.112-665.477-1567.109Z" transform="translate(-47.366 -6.36)" fill="#d2edef"/>
    <path id="Caminho_6623" data-name="Caminho 6623" d="M-603.917-1551.241a2.817,2.817,0,0,1,1.771,2.22,1.443,1.443,0,0,1-.618.139,1.462,1.462,0,0,1-1.463-1.461A1.456,1.456,0,0,1-603.917-1551.241Z" transform="translate(-102.395 -21.163)" fill="#f2c45e"/>
    <path id="Caminho_6624" data-name="Caminho 6624" d="M-636.333-1536.5a1.256,1.256,0,0,0,1.255,1.255,1.255,1.255,0,0,0,1.253-1.255,1.253,1.253,0,0,0-1.253-1.254A1.255,1.255,0,0,0-636.333-1536.5Zm1.255-2.859a2.86,2.86,0,0,1,2.859,2.859,2.938,2.938,0,0,1-.067.61h0a2.861,2.861,0,0,1-2.794,2.249,2.859,2.859,0,0,1-2.794-2.249h0c-.011-.049-.02-.1-.029-.148s-.012-.085-.018-.126a2.9,2.9,0,0,1-.02-.336A2.859,2.859,0,0,1-635.078-1539.361Z" transform="translate(-74.765 -30.9)" fill="#324459"/>
    <path id="Caminho_6625" data-name="Caminho 6625" d="M-627.791-1527.952a1.256,1.256,0,0,1-1.255-1.255,1.255,1.255,0,0,1,1.255-1.254,1.253,1.253,0,0,1,1.253,1.254A1.255,1.255,0,0,1-627.791-1527.952Z" transform="translate(-82.053 -38.194)" fill="#d2edef"/>
    <path id="Caminho_6626" data-name="Caminho 6626" d="M-714.612-1536.5a1.255,1.255,0,0,0,1.254,1.255,1.256,1.256,0,0,0,1.255-1.255,1.255,1.255,0,0,0-1.255-1.254A1.254,1.254,0,0,0-714.612-1536.5Zm-1.54.61h0c-.011-.049-.02-.1-.029-.148s-.013-.085-.018-.126a2.944,2.944,0,0,1-.02-.336,2.86,2.86,0,0,1,2.859-2.859,2.859,2.859,0,0,1,2.859,2.859,3,3,0,0,1-.02.336c-.006.041-.011.083-.018.126s-.018.1-.029.148h0a2.86,2.86,0,0,1-2.794,2.249A2.861,2.861,0,0,1-716.152-1535.892Z" transform="translate(-10.606 -30.9)" fill="#324459"/>
    <path id="Caminho_6627" data-name="Caminho 6627" d="M-707.317-1529.207a1.253,1.253,0,0,1,1.254-1.254,1.255,1.255,0,0,1,1.255,1.254,1.256,1.256,0,0,1-1.255,1.255A1.255,1.255,0,0,1-707.317-1529.207Z" transform="translate(-17.9 -38.194)" fill="#d2edef"/>
    <path id="Caminho_6628" data-name="Caminho 6628" d="M-718.732-1572.391h5.621c.617,0,1.07-.352.269-1.079-1.106-1-2.228-2.035-3.077-2.192h-5.933c-.44,0-.55.132-.639.238-.26.312-1.036,1.2-1.833,2.022-.363.372-.588,1.01.4,1.01Zm-8.025,5.6h-1.932a.467.467,0,0,1-.467-.467v-2.852h1.245v-1.4h-1.245v-.678a.467.467,0,0,1,.467-.467,5.578,5.578,0,0,0,2.1-.554,26.809,26.809,0,0,0,3.023-3.111,2.053,2.053,0,0,1,1.712-.74h6.039c2.5.325,5.6,4.513,5.6,4.513h3.384a2.663,2.663,0,0,1,.518.144,1.457,1.457,0,0,0-.31.9,1.462,1.462,0,0,0,1.463,1.461,1.443,1.443,0,0,0,.619-.139c0,.033.005.065.005.1v2.826a.467.467,0,0,1-.465.467h-2.049a2.828,2.828,0,0,0,.065-.61,2.86,2.86,0,0,0-2.859-2.859,2.859,2.859,0,0,0-2.859,2.859,2.9,2.9,0,0,0,.02.336c0,.041.011.085.018.126s.016.1.027.148h-8.532c.011-.048.02-.1.027-.148s.014-.085.018-.126a2.987,2.987,0,0,0,.02-.336,2.859,2.859,0,0,0-2.859-2.859,2.86,2.86,0,0,0-2.859,2.859,2.944,2.944,0,0,0,.02.336c0,.041.011.085.018.126S-726.769-1566.84-726.758-1566.792Z" transform="translate(0)" fill="#d4334b"/>
    <path id="Caminho_6629" data-name="Caminho 6629" d="M-727.912-1546.291v1.4h-1.245v-1.4Z" transform="translate(0 -25.22)" fill="#f2c45e"/>
    <rect id="Retângulo_8223" data-name="Retângulo 8223" width="0.541" height="8.869" transform="translate(-719.003 -1575.661)" fill="#bb2a4e"/>
    <path id="Caminho_6630" data-name="Caminho 6630" d="M-663.855-1544.29h-.911a.271.271,0,0,1-.271-.271.27.27,0,0,1,.271-.271h.911a.27.27,0,0,1,.271.271A.271.271,0,0,1-663.855-1544.29Z" transform="translate(-52.554 -26.416)" fill="#324459"/>
  </g>
</svg>
