<svg xmlns="http://www.w3.org/2000/svg" width="14.76" height="21.364" viewBox="0 0 14.76 21.364">
  <g id="Grupo_11479" data-name="Grupo 11479" transform="translate(-1484.58 4423.216)">
    <path id="Caminho_6556" data-name="Caminho 6556" d="M1541.771-4391.655v-4.826h.531v4.81Z" transform="translate(-47.058 -21.998)" fill="#40566b"/>
    <path id="Caminho_6557" data-name="Caminho 6557" d="M1528.816-4423.216l1.167,5.069h-7.292l1.166-5.069Z" transform="translate(-31.358)" fill="#f6cf76"/>
    <rect id="Retângulo_8138" data-name="Retângulo 8138" width="3.618" height="1.738" transform="translate(1486.694 -4413.753)" fill="#40566b"/>
    <path id="Caminho_6558" data-name="Caminho 6558" d="M1534.056-4371.2a1.983,1.983,0,0,1,1.983,1.984h-3.967A1.984,1.984,0,0,1,1534.056-4371.2Z" transform="translate(-39.077 -42.804)" fill="#40566b"/>
    <rect id="Retângulo_8139" data-name="Retângulo 8139" width="1.517" height="1.122" transform="translate(1486.388 -4402.974)" fill="#40566b"/>
    <rect id="Retângulo_8140" data-name="Retângulo 8140" width="1.518" height="1.122" transform="translate(1496.014 -4402.974)" fill="#40566b"/>
    <path id="Caminho_6559" data-name="Caminho 6559" d="M1499.339-4334.486v4.521h-14.759v-4.521Z" transform="translate(0 -73.01)" fill="#cd4160"/>
    <path id="Caminho_6560" data-name="Caminho 6560" d="M1499.339-4360v4.52h-14.759V-4360h14.759Z" transform="translate(0 -52.02)" fill="#e24c5d"/>
    <rect id="Retângulo_8141" data-name="Retângulo 8141" width="0.354" height="2.721" transform="translate(1492.352 -4418.147)" fill="#e24c5d"/>
    <rect id="Retângulo_8142" data-name="Retângulo 8142" width="2.392" height="0.532" transform="translate(1490.764 -4405.561)" fill="#131c24"/>
    <rect id="Retângulo_8143" data-name="Retângulo 8143" width="2.392" height="0.532" transform="translate(1490.764 -4409.917)" fill="#131c24"/>
  </g>
</svg>
