<svg xmlns="http://www.w3.org/2000/svg" width="22.478" height="24" viewBox="0 0 22.478 24">
  <g id="Grupo_10350" data-name="Grupo 10350" transform="translate(-14.045 -18.42)">
    <rect id="Retângulo_12730" data-name="Retângulo 12730" width="22.478" height="24" transform="translate(14.045 18.42)" fill="none"/>
    <g id="Grupo_10519" data-name="Grupo 10519" transform="translate(-3336.632 -567.717)">
      <path id="Caminho_8994" data-name="Caminho 8994" d="M3412.493,606.782c0-.062-.009-.121-.016-.181s-.015-.13-.024-.194l3.052,1.481,1.514.735v17.311l-6.492-3.151V612l.093-.141c.073-.112.146-.225.216-.34.029-.044.055-.086.082-.13.055-.089.108-.177.161-.265a13.494,13.494,0,0,0,.947-1.867c.027-.062.048-.121.073-.183s.046-.121.066-.183.044-.121.062-.181.04-.121.057-.181a5.222,5.222,0,0,0,.146-.592,1.033,1.033,0,0,0,.02-.108,1.2,1.2,0,0,0,.02-.126.915.915,0,0,0,.013-.115c.011-.088.018-.174.022-.26,0-.053,0-.108,0-.161,0-.069,0-.135,0-.2S3412.5,606.842,3412.493,606.782Z" transform="translate(-45.864 -15.797)" fill="#00c0b7"/>
      <path id="Caminho_8995" data-name="Caminho 8995" d="M3375.153,592.307c.022.053.048.1.075.154a1.254,1.254,0,0,0,.078.141l.007.009a2.151,2.151,0,0,0,.225.309c.029.033.057.064.086.1a2.245,2.245,0,0,0,.2.187,2.344,2.344,0,0,0,.66.384.61.61,0,0,0,.1.035.2.2,0,0,0,.047.015.527.527,0,0,0,.075.022.431.431,0,0,0,.058.015l.082.02a2.213,2.213,0,0,0,.329.044c.053,0,.108.007.163.007a2.376,2.376,0,0,0,2.375-2.376c0-.049,0-.1,0-.143s-.009-.106-.015-.159-.011-.08-.018-.117a2.07,2.07,0,0,0-.084-.327,1,1,0,0,0-.042-.117,1.855,1.855,0,0,0-.125-.272,2.376,2.376,0,0,0-4.27,2.072Zm7.374-1.5c.007.06.011.119.016.181s.009.121.011.183,0,.132,0,.2c0,.053,0,.108,0,.161,0,.086-.011.172-.022.26a.872.872,0,0,1-.014.115,1.2,1.2,0,0,1-.02.126.968.968,0,0,1-.02.108,5.219,5.219,0,0,1-.146.592c-.018.059-.037.121-.057.181s-.04.121-.062.181-.042.121-.066.183-.046.121-.073.183a13.525,13.525,0,0,1-.947,1.867c-.053.088-.106.176-.161.265-.027.044-.053.086-.082.13-.07.115-.143.227-.216.34l-.093.141a32.275,32.275,0,0,1-1.935,2.6c-.106.13-.21.252-.3.366l-.166.194c-.071.082-.139.159-.2.234-.029.031-.057.064-.082.093s-.055.059-.077.088l-.073.082c-.033.037-.066.073-.095.106l-.084.09a.033.033,0,0,1-.007.009l-.094.106c-.029.031-.053.055-.071.077a.156.156,0,0,0-.026.026l-.033.035-.033-.035a.129.129,0,0,0-.027-.026c-.017-.022-.042-.046-.07-.077s-.053-.059-.086-.1c-.022-.022-.042-.046-.066-.071s-.04-.044-.062-.069a34.96,34.96,0,0,1-2.9-3.72v0c-.13-.2-.258-.4-.382-.6q-.07-.109-.132-.219c-.038-.062-.075-.123-.11-.185q-.248-.421-.464-.841c-.026-.055-.055-.108-.079-.163-.062-.126-.121-.249-.177-.373-.029-.062-.057-.123-.081-.185-.055-.13-.108-.258-.157-.386-.02-.055-.042-.11-.06-.165s-.042-.121-.062-.181q-.043-.129-.079-.258c-.024-.088-.049-.177-.068-.262a4.77,4.77,0,0,1-.1-.51h0a4.072,4.072,0,0,1-.035-.512,5.231,5.231,0,0,1,10.406-.759C3382.512,590.674,3382.521,590.738,3382.527,590.8Z" transform="translate(-15.914 0)" fill="#e24c5d"/>
      <path id="Caminho_8996" data-name="Caminho 8996" d="M3385.947,606.779l4.27-2.072a1.832,1.832,0,0,1,.125.272.96.96,0,0,1,.042.117,1.99,1.99,0,0,1,.084.327c.007.037.013.077.018.117s.013.106.015.159,0,.095,0,.143a2.376,2.376,0,0,1-2.374,2.376c-.055,0-.111,0-.164-.007a2.225,2.225,0,0,1-.329-.044l-.081-.02a.41.41,0,0,1-.057-.015.743.743,0,0,1-.075-.022.2.2,0,0,1-.046-.015.583.583,0,0,1-.1-.035,2.346,2.346,0,0,1-.66-.384,2.259,2.259,0,0,1-.2-.187c-.029-.031-.057-.062-.086-.1a2.875,2.875,0,0,1-.225-.309l-.007-.009c-.027-.046-.053-.093-.078-.141S3385.969,606.832,3385.947,606.779Z" transform="translate(-26.708 -14.472)" fill="#daf1f3"/>
      <path id="Caminho_8997" data-name="Caminho 8997" d="M3381.1,631.754a35.022,35.022,0,0,0,2.9,3.72c.022.024.044.047.062.069s.044.048.066.071c.033.037.062.068.086.1s.053.055.071.077a.143.143,0,0,1,.027.026l.033.035s.011-.011.033-.035a.149.149,0,0,1,.026-.026c.018-.022.042-.046.071-.077l.095-.106a.033.033,0,0,0,.007-.009c.026-.026.053-.058.084-.09s.062-.069.095-.106l.073-.082.077-.088c.024-.029.053-.062.082-.093.062-.075.13-.152.2-.234.052-.062.108-.125.166-.194.095-.115.2-.236.3-.366a32.2,32.2,0,0,0,1.935-2.595v10.784l-.843.408-1.845.9-3.806,1.847V631.754Z" transform="translate(-22.928 -35.545)" fill="#daf1f3"/>
      <path id="Caminho_8998" data-name="Caminho 8998" d="M3357.081,606.858q.215.421.463.841c.035.062.071.123.11.185s.086.146.132.219c.124.2.252.4.382.6v13.93l-1.514-.735-3.363-1.633-1.615-.783V602.167l1.7.825,1.845.9,1,.485a4.472,4.472,0,0,0,.1.51c.02.086.042.174.069.262s.051.172.079.258c.02.06.04.119.062.181s.04.11.06.166c.049.128.1.256.156.386.025.062.053.124.082.185.055.124.115.247.177.373C3357.026,606.75,3357.055,606.8,3357.081,606.858Z" transform="translate(0 -12.493)" fill="#00c0b7"/>
    </g>
  </g>
</svg>
