<svg data-name="Grupo 10699" xmlns="http://www.w3.org/2000/svg" width="25.753" height="22.105"><path data-name="Caminho 6410" d="M7.258 21.777a.853.853 0 0 0 .092-.386 1 1 0 0 0-.933-.946 1.843 1.843 0 0 0-1.892-1.516 1.932 1.932 0 0 0-1.722.975.336.336 0 0 1-.044 0V8.964h1.652l7.333-7.407L12.902.386l8.491 8.579h1.653v10.423a.8.8 0 0 0-.09-.066c-.02-.017-.042-.029-.063-.046a2.068 2.068 0 0 0-.287-.155 2.005 2.005 0 0 0-.375-.124 1.35 1.35 0 0 0-.149-.032 2.421 2.421 0 0 0-.37-.03 2.011 2.011 0 0 0-1.779.975 1.862 1.862 0 0 0-.193-.013 1.333 1.333 0 0 0-1.415 1.226 1.112 1.112 0 0 0 .224.66h-1.985v-1.8h-1.52v-6.768h-4.341v6.768h-1.52v1.8Zm13.722-4.973v-3.593h-3.833v3.593Zm-6.468-7.6V6.137H11.24v3.067Zm-5.892 7.6v-3.593H4.79v3.593Z" fill="#f6cf76"/><path data-name="Caminho 6411" d="M16.567 19.979v1.8H9.186v-1.8h7.381Z" fill="#fea856"/><path data-name="Caminho 6412" d="M2.803 19.905a1.929 1.929 0 0 1 1.722-.975 1.842 1.842 0 0 1 1.892 1.516 1 1 0 0 1 .933.946.85.85 0 0 1-.092.385h-5.8a1.144 1.144 0 0 1-.215-.66 1.3 1.3 0 0 1 1.371-1.225 1.349 1.349 0 0 1 .142.009.251.251 0 0 1 .047.004Z" fill="#6ab528"/><path data-name="Caminho 6413" d="M19.935 19.905a2.009 2.009 0 0 1 1.779-.975 2.251 2.251 0 0 1 .37.03c.05.01.1.019.148.032a2.048 2.048 0 0 1 .375.125 2.307 2.307 0 0 1 .287.155c.021.016.043.03.063.046s.061.043.089.065a1.632 1.632 0 0 1 .622 1.063 1.014 1.014 0 0 1 .963.946.857.857 0 0 1-.094.385h-5.988a1.107 1.107 0 0 1-.224-.66 1.332 1.332 0 0 1 1.415-1.225 1.531 1.531 0 0 1 .195.013Z" fill="#6ab528"/><path data-name="Retângulo 7939" fill="#40566b" d="M10.706 13.211h4.341v6.768h-4.341z"/><path data-name="Caminho 6414" d="M21.232 1.552v1.553h-1.9v-3.1h1.9Z" fill="#f6cf76"/><path data-name="Caminho 6415" d="M11.744 1.549 4.413 8.957H1.744V1.549Z" fill="#e24c5d"/><path data-name="Caminho 6416" d="M24.062 1.549v7.408h-2.663l-7.333-7.408h5.263v1.553h1.9V1.549Z" fill="#e24c5d"/><path data-name="Retângulo 7940" fill="#d2edef" d="M4.79 13.211h3.831v3.594H4.79z"/><path data-name="Retângulo 7941" fill="#d2edef" d="M17.147 13.211h3.833v3.594h-3.833z"/><path data-name="Retângulo 7942" fill="#d2edef" d="M11.24 6.135h3.272v3.068H11.24z"/><path data-name="Retângulo 7943" fill="#fea856" d="M0 21.448h25.753v.657H0z"/></svg>