<svg xmlns="http://www.w3.org/2000/svg" width="47.53" height="47.529" viewBox="0 0 47.53 47.529">
  <path id="Caminho_10061" data-name="Caminho 10061" d="M926.184,312.316h-39.2a4.167,4.167,0,0,0-4.167,4.167v39.2a4.167,4.167,0,0,0,4.167,4.167h12.249V343.982a7.136,7.136,0,0,1,14.272,0v12.4h-3.294v-12.4a3.842,3.842,0,0,0-7.685,0v15.864h15.413V342.463a11.316,11.316,0,1,0-22.631,0v11.224h-3.294V342.463c0-.414.02-.841.057-1.274h-3.015a1.849,1.849,0,0,1-1.681-1,1.552,1.552,0,0,1,.36-1.829l14.169-13.924,4.457-4.3.221-.213.22.213,4.459,4.305,14.161,13.916a1.555,1.555,0,0,1,.366,1.835,1.849,1.849,0,0,1-1.681,1h-2.932c.038.434.058.861.058,1.274v17.382h4.947a4.167,4.167,0,0,0,4.167-4.167v-39.2A4.167,4.167,0,0,0,926.184,312.316Z" transform="translate(-882.821 -312.316)" fill="#c6d9de"/>
</svg>
