<svg xmlns="http://www.w3.org/2000/svg" width="20.537" height="12.157" viewBox="0 0 20.537 12.157">
  <g id="Grupo_11476" data-name="Grupo 11476" transform="translate(1196.67 442.993)">
    <path id="Caminho_6537" data-name="Caminho 6537" d="M-1131.883-421.9v1.328h-12.708V-421.9h12.708Z" transform="translate(-44.25 -17.919)" fill="#f6cf76"/>
    <rect id="Retângulo_8114" data-name="Retângulo 8114" width="0.451" height="4.074" transform="translate(-1188.9 -435.136)" fill="#40566b"/>
    <rect id="Retângulo_8115" data-name="Retângulo 8115" width="0.451" height="4.074" transform="translate(-1180.419 -435.136)" fill="#40566b"/>
    <rect id="Retângulo_8116" data-name="Retângulo 8116" width="0.451" height="4.074" transform="translate(-1185.054 -435.136)" fill="#40566b"/>
    <rect id="Retângulo_8117" data-name="Retângulo 8117" width="0.451" height="2.031" transform="translate(-1185.054 -438.495)" fill="#40566b"/>
    <rect id="Retângulo_8118" data-name="Retângulo 8118" width="0.451" height="2.031" transform="translate(-1180.419 -438.495)" fill="#40566b"/>
    <path id="Caminho_6538" data-name="Caminho 6538" d="M-1115-442.993h-3.733a.677.677,0,0,0-.677.677v2.494h5.086v-2.494A.677.677,0,0,0-1115-442.993Z" transform="translate(-65.645 0)" fill="#e24c5d"/>
    <path id="Caminho_6539" data-name="Caminho 6539" d="M-1173.4-401.063h-6.3v1.779h6.3a.226.226,0,0,0,.226-.226v-1.328A.226.226,0,0,0-1173.4-401.063Z" transform="translate(-14.42 -35.626)" fill="#e24c5d"/>
    <path id="Caminho_6540" data-name="Caminho 6540" d="M-1187.714-405.247l-.437-.113,1.045-4.047v-1.274l-.434-1.9.44-.1.439,1.921a.232.232,0,0,1,.006.05v1.328a.225.225,0,0,1-.007.056Z" transform="translate(-7.239 -25.758)" fill="#40566b"/>
    <rect id="Retângulo_8119" data-name="Retângulo 8119" width="6.754" height="1.779" rx="0.889" transform="translate(-1185.863 -436.689)" fill="#e24c5d"/>
    <rect id="Retângulo_8120" data-name="Retângulo 8120" width="0.451" height="7.433" transform="translate(-1178.439 -438.495)" fill="#40566b"/>
    <rect id="Retângulo_8121" data-name="Retângulo 8121" width="0.451" height="7.433" transform="translate(-1186.985 -438.495)" fill="#40566b"/>
    <path id="Caminho_6541" data-name="Caminho 6541" d="M-1191.107-438.259l-.886-3.867a.684.684,0,0,0-.661-.529.681.681,0,0,0-.147.016l-.122.027a.679.679,0,0,0-.512.81l.886,3.867a.226.226,0,0,0,.22.175.231.231,0,0,0,.049-.005l1-.224a.225.225,0,0,0,.141-.1A.225.225,0,0,0-1191.107-438.259Z" transform="translate(-2.735 -0.287)" fill="#e24c5d"/>
    <rect id="Retângulo_8122" data-name="Retângulo 8122" width="20.388" height="0.451" transform="translate(-1196.671 -431.287)" fill="#40566b"/>
  </g>
</svg>
