<svg xmlns="http://www.w3.org/2000/svg" width="13.594" height="16.991" viewBox="0 0 13.594 16.991">
  <g id="Grupo_12383" data-name="Grupo 12383" transform="translate(18728.5 8272.927)">
    <path id="Caminho_9847" data-name="Caminho 9847" d="M1142.634-4556.278a4.008,4.008,0,0,0,4,3.869,4.008,4.008,0,0,0,4-3.857c0-.051,0-.1,0-.151a4.006,4.006,0,0,0-4.008-4.007,4.008,4.008,0,0,0-4.008,4.007C1142.63-4556.371,1142.632-4556.326,1142.634-4556.278Zm10.8-6.937v13.593h-13.594v-13.593Z" transform="translate(-19868.342 -3706.313)" fill="#bee39d"/>
    <path id="Caminho_9848" data-name="Caminho 9848" d="M1157.714-4549.864a4.532,4.532,0,0,0-4.532,4.53c0,.054,0,.1,0,.16a4.533,4.533,0,0,0,4.528,4.375,4.532,4.532,0,0,0,4.529-4.361c0-.058,0-.114,0-.173A4.53,4.53,0,0,0,1157.714-4549.864Z" transform="translate(-19879.418 -3717.397)" fill="#40566b"/>
    <path id="Caminho_9849" data-name="Caminho 9849" d="M1156.272-4542.769a4.008,4.008,0,0,1,4.008-4.006,4.006,4.006,0,0,1,4.008,4.006c0,.053,0,.1,0,.152-3.645.95-4.388-.94-8.009-.012C1156.274-4542.675,1156.272-4542.721,1156.272-4542.769Z" transform="translate(-19881.984 -3719.964)" fill="#d2edef"/>
    <rect id="Retângulo_13626" data-name="Retângulo 13626" width="13.594" height="3.399" transform="translate(-18728.5 -8272.927)" fill="#6ab528"/>
    <path id="Caminho_9850" data-name="Caminho 9850" d="M1156.293-4523.628c3.621-.929,4.364.962,8.009.012a4.007,4.007,0,0,1-4,3.856A4.008,4.008,0,0,1,1156.293-4523.628Z" transform="translate(-19882.002 -3738.964)" fill="#548e20"/>
    <rect id="Retângulo_13627" data-name="Retângulo 13627" width="3.07" height="0.509" transform="translate(-18726.801 -8271.481)" fill="#40566b"/>
    <rect id="Retângulo_13628" data-name="Retângulo 13628" width="0.619" height="0.509" transform="translate(-18717.227 -8271.481)" fill="#40566b"/>
    <rect id="Retângulo_13629" data-name="Retângulo 13629" width="0.619" height="0.509" transform="translate(-18718.305 -8271.481)" fill="#40566b"/>
    <rect id="Retângulo_13630" data-name="Retângulo 13630" width="0.619" height="0.509" transform="translate(-18719.385 -8271.481)" fill="#e24c5d"/>
  </g>
</svg>
