<svg xmlns="http://www.w3.org/2000/svg" width="32.877" height="32.877" viewBox="0 0 32.877 32.877">
  <path id="Logo" d="M912.815,312.316H885.7a2.882,2.882,0,0,0-2.882,2.882V342.31a2.882,2.882,0,0,0,2.882,2.882h8.473V334.22a4.936,4.936,0,0,1,9.872,0v8.58H901.77v-8.58a2.658,2.658,0,0,0-5.316,0v10.973h10.661V333.169a7.827,7.827,0,1,0-15.654,0v7.764h-2.278v-7.764c0-.287.013-.582.04-.881h-2.086a1.279,1.279,0,0,1-1.163-.692,1.073,1.073,0,0,1,.249-1.265l9.8-9.631,3.083-2.977.153-.147.153.147L902.5,320.7l9.8,9.626a1.076,1.076,0,0,1,.253,1.269,1.279,1.279,0,0,1-1.163.692h-2.028c.027.3.04.6.04.881v12.024h3.422a2.882,2.882,0,0,0,2.882-2.882V315.2A2.882,2.882,0,0,0,912.815,312.316Z" transform="translate(-882.821 -312.316)" fill="#6ab528"/>
</svg>
