<svg xmlns="http://www.w3.org/2000/svg" width="158.652" height="37.498" viewBox="0 0 158.652 37.498">
  <g id="Logo" transform="translate(0)">
    <path id="Caminho_6509" data-name="Caminho 6509" d="M917.032,312.316H886.108a3.287,3.287,0,0,0-3.287,3.287v30.923a3.287,3.287,0,0,0,3.287,3.288h9.664V337.3a5.63,5.63,0,0,1,11.26,0v9.786h-2.6V337.3a3.031,3.031,0,0,0-6.063,0v12.516h12.16V336.1a8.927,8.927,0,1,0-17.855,0v8.855h-2.6V336.1c0-.327.015-.664.045-1h-2.379a1.459,1.459,0,0,1-1.327-.789,1.224,1.224,0,0,1,.284-1.443l11.178-10.985,3.516-3.4.174-.168.174.168,3.518,3.4,11.172,10.979a1.226,1.226,0,0,1,.289,1.448,1.459,1.459,0,0,1-1.326.789h-2.313c.03.342.046.679.046,1v13.714h3.9a3.287,3.287,0,0,0,3.287-3.288V315.6A3.287,3.287,0,0,0,917.032,312.316Z" transform="translate(-882.821 -312.316)" fill="#6ab528"/>
    <g id="Grupo_5829" data-name="Grupo 5829" transform="translate(52.269 9.124)">
      <path id="Caminho_6494" data-name="Caminho 6494" d="M737.414,480.521v15.873h-2.585v-7.127h-7.464v7.127H724.8V480.521h2.563v6.655h7.464v-6.655Z" transform="translate(-724.801 -477.67)" fill="#464646"/>
      <path id="Caminho_6495" data-name="Caminho 6495" d="M800.275,495.83a5.491,5.491,0,0,1,2.248,2.2,7.477,7.477,0,0,1,0,6.767,5.487,5.487,0,0,1-2.248,2.2,7.213,7.213,0,0,1-6.464,0,5.556,5.556,0,0,1-2.248-2.214,7.363,7.363,0,0,1,0-6.756,5.579,5.579,0,0,1,2.248-2.2,7.215,7.215,0,0,1,6.464,0Zm-5.058,1.911a3.315,3.315,0,0,0-1.338,1.383,5.425,5.425,0,0,0,0,4.575,3.324,3.324,0,0,0,1.338,1.372,3.911,3.911,0,0,0,3.642,0A3.323,3.323,0,0,0,800.2,503.7a5.421,5.421,0,0,0,0-4.575,3.314,3.314,0,0,0-1.338-1.383,3.911,3.911,0,0,0-3.642,0Z" transform="translate(-775.657 -488.887)" fill="#464646"/>
      <path id="Caminho_6496" data-name="Caminho 6496" d="M874.761,496.263a5.579,5.579,0,0,1,1.315,3.979v7.217h-2.563v-6.947a3.589,3.589,0,0,0-.809-2.507,2.861,2.861,0,0,0-2.226-.888,3.111,3.111,0,0,0-2.394.955,3.971,3.971,0,0,0-.888,2.8v6.587h-2.563v-6.947a3.589,3.589,0,0,0-.81-2.507,2.86,2.86,0,0,0-2.226-.888,3.111,3.111,0,0,0-2.394.955,3.972,3.972,0,0,0-.888,2.8v6.587h-2.563V495.071h2.563v2.585a3.939,3.939,0,0,1,1.574-2.068,4.622,4.622,0,0,1,2.586-.72,4.7,4.7,0,0,1,2.687.765,4.328,4.328,0,0,1,1.653,2.2,4.475,4.475,0,0,1,1.731-2.181,4.786,4.786,0,0,1,2.7-.787A4.61,4.61,0,0,1,874.761,496.263Z" transform="translate(-825.794 -488.735)" fill="#464646"/>
      <path id="Caminho_6497" data-name="Caminho 6497" d="M966.962,501.923h-9.533a3.894,3.894,0,0,0,1.057,2.833,3.456,3.456,0,0,0,2.451.922,3.563,3.563,0,0,0,2.17-.652,2.691,2.691,0,0,0,1.09-1.731h2.743a5.263,5.263,0,0,1-3.08,3.9,6.7,6.7,0,0,1-2.81.573,6.463,6.463,0,0,1-3.181-.765,5.434,5.434,0,0,1-2.17-2.2,7.671,7.671,0,0,1,0-6.767,5.439,5.439,0,0,1,2.17-2.2,7.049,7.049,0,0,1,6.363-.011,5.242,5.242,0,0,1,2.091,2.068,6.391,6.391,0,0,1,.641,4.036Zm-2.912-3.2a2.894,2.894,0,0,0-1.259-1.214,3.889,3.889,0,0,0-1.742-.393,3.6,3.6,0,0,0-2.518.922,3.766,3.766,0,0,0-1.1,2.72h7.037A3.812,3.812,0,0,0,964.05,498.719Z" transform="translate(-902.268 -488.887)" fill="#464646"/>
      <path id="Caminho_6498" data-name="Caminho 6498" d="M1021.955,477.406a2.445,2.445,0,0,0-.607,1.877v.2h2.72v2.2h-2.72v10.185h-2.585V481.689h-1.686v-2.2h1.686v-.4a4.236,4.236,0,0,1,1.326-3.406,5.536,5.536,0,0,1,3.979-1v2.248A2.948,2.948,0,0,0,1021.955,477.406Z" transform="translate(-950.211 -473.15)" fill="#464646"/>
      <path id="Caminho_6499" data-name="Caminho 6499" d="M1056.11,473.872a1.66,1.66,0,0,1,1.192-.427,1.7,1.7,0,0,1,1.2.427,1.409,1.409,0,0,1,.461,1.079,1.339,1.339,0,0,1-.461,1.057,1.755,1.755,0,0,1-1.2.4,1.713,1.713,0,0,1-1.192-.4,1.354,1.354,0,0,1-.45-1.057A1.425,1.425,0,0,1,1056.11,473.872Zm2.473,4.677v12.388h-2.563V478.549Z" transform="translate(-979.969 -472.212)" fill="#464646"/>
      <path id="Caminho_6500" data-name="Caminho 6500" d="M1081.25,477.18v16.637h-2.563V477.18Z" transform="translate(-997.728 -475.093)" fill="#464646"/>
      <path id="Caminho_6501" data-name="Caminho 6501" d="M1111.649,501.923h-9.533a3.893,3.893,0,0,0,1.057,2.833,3.455,3.455,0,0,0,2.451.922,3.564,3.564,0,0,0,2.169-.652,2.691,2.691,0,0,0,1.09-1.731h2.743a5.264,5.264,0,0,1-3.08,3.9,6.706,6.706,0,0,1-2.81.573,6.465,6.465,0,0,1-3.182-.765,5.433,5.433,0,0,1-2.169-2.2,7.668,7.668,0,0,1,0-6.767,5.438,5.438,0,0,1,2.169-2.2,7.05,7.05,0,0,1,6.363-.011,5.244,5.244,0,0,1,2.091,2.068,6.39,6.39,0,0,1,.641,4.036Zm-2.912-3.2a2.9,2.9,0,0,0-1.259-1.214,3.887,3.887,0,0,0-1.742-.393,3.6,3.6,0,0,0-2.518.922,3.764,3.764,0,0,0-1.1,2.72h7.037A3.813,3.813,0,0,0,1108.737,498.719Z" transform="translate(-1013.855 -488.887)" fill="#464646"/>
      <g id="Homefile" transform="translate(98.383 -2.045)" style="isolation: isolate">
        <text id="TM" transform="translate(0 5)" fill="#464646" font-size="5" font-family="Poppins-Bold, Poppins" font-weight="700" style="isolation: isolate"><tspan x="0" y="0">TM</tspan></text>
      </g>
    </g>
  </g>
</svg>
