<svg xmlns="http://www.w3.org/2000/svg" width="33.689" height="34.184" viewBox="0 0 33.689 34.184">
  <g id="Grupo_10142" data-name="Grupo 10142" transform="translate(-1 -1)">
    <g id="Grupo_11571" data-name="Grupo 11571" transform="translate(1 1)">
      <path id="Caminho_7108" data-name="Caminho 7108" d="M3292.356-1794.1H3272.3v16.678l8.4,7,4.2,3.506,4.2-3.506.465-.385,7.842-6.537v-11.7Z" transform="translate(-3268.056 1794.101)" fill="#d2edef"/>
      <path id="Caminho_7109" data-name="Caminho 7109" d="M3335.942-1754.11v21.008L3323.3-1743.61l.464-.385Z" transform="translate(-3302.253 1767.286)" fill="#f99640"/>
      <path id="Caminho_7110" data-name="Caminho 7110" d="M3352.846-1761.327l-4.332,3.615v-7.229Z" transform="translate(-3319.158 1774.548)" fill="#324459"/>
      <path id="Caminho_7111" data-name="Caminho 7111" d="M3293.1-1711.734h-33.688l12.635-10.5.006-.006,4.2,3.506,4.2-3.506Z" transform="translate(-3259.413 1745.917)" fill="#f2c45e"/>
      <path id="Caminho_7112" data-name="Caminho 7112" d="M3338.221-1788.794h-5.058v-5.057Z" transform="translate(-3308.864 1793.933)" fill="#324459"/>
      <path id="Caminho_7113" data-name="Caminho 7113" d="M3272.049-1743.6l-12.635,10.5v-21Z" transform="translate(-3259.413 1767.28)" fill="#f99640"/>
      <path id="Caminho_7114" data-name="Caminho 7114" d="M3263.66-1764.721v7.081l-4.247-3.539Z" transform="translate(-3259.413 1774.401)" fill="#324459"/>
      <rect id="Retângulo_8841" data-name="Retângulo 8841" width="16.154" height="0.988" transform="translate(8.725 8.813)" fill="#324459"/>
      <rect id="Retângulo_8842" data-name="Retângulo 8842" width="16.154" height="0.988" transform="translate(8.725 12.273)" fill="#324459"/>
      <rect id="Retângulo_8843" data-name="Retângulo 8843" width="11.433" height="0.988" transform="translate(8.725 15.733)" fill="#324459"/>
      <rect id="Retângulo_8844" data-name="Retângulo 8844" width="5.163" height="0.988" transform="translate(8.725 4.28)" fill="#324459"/>
    </g>
  </g>
</svg>
