<svg xmlns="http://www.w3.org/2000/svg" width="19.176" height="14.267" viewBox="0 0 19.176 14.267">
  <g id="Grupo_11489" data-name="Grupo 11489" transform="translate(-2751.576 2293)">
    <path id="Caminho_6771" data-name="Caminho 6771" d="M-2334.536-1874.548v.115a.546.546,0,0,1-.546.547.546.546,0,0,1-.547-.547v-.115h-.671v.115a.545.545,0,0,1-.547.547.545.545,0,0,1-.545-.547v-.115h-.673v.115a.545.545,0,0,1-.545.547.546.546,0,0,1-.547-.547v-.115h-.636v.115a.546.546,0,0,1-.547.547.546.546,0,0,1-.547-.547v-.115h-.636v.115a.546.546,0,0,1-.547.547.546.546,0,0,1-.547-.547v-.115h-.636v.115a.546.546,0,0,1-.547.547.544.544,0,0,1-.545-.547v-1.148h9.809v1.033Z" transform="translate(5105.289 -404.847)" fill="#40566b"/>
    <path id="Caminho_6772" data-name="Caminho 6772" d="M-2378.158-1885.71v1.241h-9.719l-3.142-.663h-6.286v-1.24h6.286l3.142.661Z" transform="translate(5148.911 -395.959)" fill="#e24c5d"/>
    <path id="Caminho_6773" data-name="Caminho 6773" d="M-2383.762-1938.781a5,5,0,0,0,.674.044h1.786a3.1,3.1,0,0,1,3.012,3.17l-9.719.016-3.142-.661h-.007v-2.312a4.115,4.115,0,0,0-4.207-4.017,4.331,4.331,0,0,0-2.095.536l-.005-2.975h4.7a1.9,1.9,0,0,0,1.9-1.9h2.655v3.258A4.966,4.966,0,0,0-2383.762-1938.781Z" transform="translate(5149.043 -346.119)" fill="#f6cf76"/>
    <path id="Caminho_6774" data-name="Caminho 6774" d="M-2397.475-1946.881h6.605a1.9,1.9,0,0,1-1.9,1.9h-4.7Z" transform="translate(5149.051 -346.119)" fill="#40566b"/>
    <path id="Caminho_6775" data-name="Caminho 6775" d="M-2391.019-1879.341v1.7h-.007v.115a.545.545,0,0,1-.545.547.546.546,0,0,1-.547-.547v-.115h-.637v.115a.546.546,0,0,1-.546.547.546.546,0,0,1-.547-.547v-.115h-.636v.115a.546.546,0,0,1-.547.547.546.546,0,0,1-.547-.547v-.115h-.636v.115a.546.546,0,0,1-.547.547.544.544,0,0,1-.545-.547v-1.811Z" transform="translate(5148.911 -401.75)" fill="#40566b"/>
    <path id="Caminho_6776" data-name="Caminho 6776" d="M-2391.133-1918.244v2.312h-6.295l-.007-5.792a4.33,4.33,0,0,1,2.095-.536A4.115,4.115,0,0,1-2391.133-1918.244Z" transform="translate(5149.018 -366.398)" fill="#40566b"/>
    <path id="Caminho_6777" data-name="Caminho 6777" d="M-2351.594-1924.339l.577-1.769a5.133,5.133,0,0,0,.47.264l-.544,1.669Zm-3.5-5.693h1.792c0-.049,0-.1,0-.148v-.381h-1.788Zm1.931,4.468,1.223-1.295a4.965,4.965,0,0,1-.35-.4l-1.258,1.331Zm4.567,1.952v-1.7c-.089-.007-.177-.014-.265-.026s-.177-.025-.264-.04v1.766Zm-5.964-3.988,1.7-.595a4.736,4.736,0,0,1-.2-.491l-1.674.587Z" transform="translate(5114.144 -359.561)" fill="#40566b"/>
  </g>
</svg>
