<svg xmlns="http://www.w3.org/2000/svg" width="21.607" height="19.544" viewBox="0 0 21.607 19.544">
  <g id="Grupo_11485" data-name="Grupo 11485" transform="translate(-3775.094 1968.061)">
    <path id="Caminho_6734" data-name="Caminho 6734" d="M3831.465-1892.831a.3.3,0,0,1-.281-.31v-4.52a.3.3,0,0,1,.281-.31.3.3,0,0,1,.281.31v4.52A.3.3,0,0,1,3831.465-1892.831Z" transform="translate(-45.583 -56.96)" fill="#324459"/>
    <path id="Caminho_6735" data-name="Caminho 6735" d="M3811.265-1879.47a.28.28,0,0,1-.221-.107.281.281,0,0,1,.047-.395l1.405-1.105a1.384,1.384,0,0,1,.964-.454h1.589a.281.281,0,0,1,.281.281.281.281,0,0,1-.281.281h-1.589a.835.835,0,0,0-.544.267.3.3,0,0,1-.048.048l-1.429,1.124A.28.28,0,0,1,3811.265-1879.47Z" transform="translate(-29.166 -70.32)" fill="#324459"/>
    <path id="Caminho_6736" data-name="Caminho 6736" d="M3835.808-1879.47a.281.281,0,0,1-.174-.06l-1.429-1.124a.264.264,0,0,1-.049-.049.829.829,0,0,0-.544-.266h-1.589a.281.281,0,0,1-.281-.281.281.281,0,0,1,.281-.281h1.589a1.376,1.376,0,0,1,.964.454l1.4,1.1a.281.281,0,0,1,.047.395A.28.28,0,0,1,3835.808-1879.47Z" transform="translate(-46.037 -70.32)" fill="#324459"/>
    <path id="Caminho_6737" data-name="Caminho 6737" d="M3799.585-1934.629a.281.281,0,0,1-.281-.281v-1.253a2.049,2.049,0,0,1,2.045-2.048.281.281,0,0,1,.281.281.281.281,0,0,1-.281.281,1.486,1.486,0,0,0-1.484,1.486v1.253A.281.281,0,0,1,3799.585-1934.629Z" transform="translate(-19.675 -24.258)" fill="#324459"/>
    <path id="Caminho_6738" data-name="Caminho 6738" d="M3855.691-1934.629a.281.281,0,0,1-.281-.281v-1.253a1.487,1.487,0,0,0-1.485-1.486.281.281,0,0,1-.281-.281.281.281,0,0,1,.281-.281,2.05,2.05,0,0,1,2.047,2.048v1.253A.281.281,0,0,1,3855.691-1934.629Z" transform="translate(-63.835 -24.258)" fill="#324459"/>
    <path id="Caminho_6739" data-name="Caminho 6739" d="M3796.7-1920.591v1.424h-21.607v-1.424H3796.7Z" transform="translate(0 -38.577)" fill="#f2c45e"/>
    <path id="Caminho_6740" data-name="Caminho 6740" d="M3801.846-1912.058v8.108h-1.251v-7.92h-15.952v7.92h-1.25v-8.853l.043-.187h18.41Z" transform="translate(-6.745 -44.753)" fill="#f99640"/>
    <path id="Caminho_6741" data-name="Caminho 6741" d="M3803.614-1907.011h10.921a1.207,1.207,0,0,1-1.206,1.207h-8.509A1.206,1.206,0,0,1,3803.614-1907.011Z" transform="translate(-23.177 -49.613)" fill="#6ab528"/>
    <path id="Caminho_6742" data-name="Caminho 6742" d="M3850.688-1872.981a.866.866,0,0,1,.867.865.867.867,0,0,1-.867.867.866.866,0,0,1-.865-.867A.866.866,0,0,1,3850.688-1872.981Z" transform="translate(-60.73 -77.268)" fill="#6ab528"/>
    <path id="Caminho_6743" data-name="Caminho 6743" d="M3817.592-1962.184l.18,3.016h-8.979l.18-3.014.232-3.895a1.984,1.984,0,0,1,1.986-1.984h4.185a1.985,1.985,0,0,1,1.985,1.984Z" transform="translate(-27.386)" fill="#6ab528"/>
    <path id="Caminho_6744" data-name="Caminho 6744" d="M3822.528-1900.571v.974h-6.084v-.974Z" transform="translate(-33.604 -54.847)" fill="#324459"/>
    <path id="Caminho_6745" data-name="Caminho 6745" d="M3828.929-1873.031a.866.866,0,0,1,.866.865.866.866,0,0,1-.866.867.865.865,0,0,1-.865-.867A.865.865,0,0,1,3828.929-1873.031Z" transform="translate(-43.047 -77.228)" fill="#6ab528"/>
    <path id="Caminho_6746" data-name="Caminho 6746" d="M3807.729-1872.981a.866.866,0,0,1,.865.865.867.867,0,0,1-.865.867.866.866,0,0,1-.865-.867A.866.866,0,0,1,3807.729-1872.981Z" transform="translate(-25.818 -77.268)" fill="#6ab528"/>
    <path id="Caminho_6747" data-name="Caminho 6747" d="M3823.329-1952.613a.45.45,0,0,1-.45.45.45.45,0,0,1-.45-.45.45.45,0,0,1,.45-.45A.45.45,0,0,1,3823.329-1952.613Z" transform="translate(-38.467 -12.188)" fill="#324459"/>
    <path id="Caminho_6748" data-name="Caminho 6748" d="M3838.954-1952.613a.45.45,0,0,1-.45.45.45.45,0,0,1-.45-.45.45.45,0,0,1,.45-.45A.45.45,0,0,1,3838.954-1952.613Z" transform="translate(-51.165 -12.188)" fill="#324459"/>
    <path id="Caminho_6749" data-name="Caminho 6749" d="M3823.329-1942.613a.45.45,0,0,1-.45.45.45.45,0,0,1-.45-.45.45.45,0,0,1,.45-.45A.45.45,0,0,1,3823.329-1942.613Z" transform="translate(-38.467 -20.315)" fill="#324459"/>
    <path id="Caminho_6750" data-name="Caminho 6750" d="M3838.954-1942.613a.45.45,0,0,1-.45.45.45.45,0,0,1-.45-.45.45.45,0,0,1,.45-.45A.45.45,0,0,1,3838.954-1942.613Z" transform="translate(-51.165 -20.315)" fill="#324459"/>
    <path id="Caminho_6751" data-name="Caminho 6751" d="M3823.329-1932.613a.45.45,0,0,1-.45.45.45.45,0,0,1-.45-.45.45.45,0,0,1,.45-.45A.45.45,0,0,1,3823.329-1932.613Z" transform="translate(-38.467 -28.442)" fill="#324459"/>
    <path id="Caminho_6752" data-name="Caminho 6752" d="M3838.954-1932.613a.45.45,0,0,1-.45.45.45.45,0,0,1-.45-.45.45.45,0,0,1,.45-.45A.45.45,0,0,1,3838.954-1932.613Z" transform="translate(-51.165 -28.442)" fill="#324459"/>
  </g>
</svg>
