<svg id="Grupo_10142" data-name="Grupo 10142" xmlns="http://www.w3.org/2000/svg" width="34.541" height="35.191" viewBox="0 0 34.541 35.191">
  <g id="App_Icon_Atom" transform="translate(0 0)">
    <path id="Caminho_8841" data-name="Caminho 8841" d="M0,0H34.541V34.541H0Z" fill="none"/>
  </g>
  <g id="Grupo_11579" data-name="Grupo 11579" transform="translate(4)">
    <rect id="Retângulo_13669" data-name="Retângulo 13669" width="27.541" height="31.714" transform="translate(0 3.377)" fill="#d2edef"/>
    <rect id="Retângulo_13660" data-name="Retângulo 13660" width="14.659" height="0.872" transform="translate(10.255 26.279)" fill="#40566b"/>
    <rect id="Retângulo_13661" data-name="Retângulo 13661" width="14.659" height="0.872" transform="translate(10.255 28.796)" fill="#40566b"/>
    <path id="Caminho_9862" data-name="Caminho 9862" d="M62.791,104.63v4.791l4.794-4.791Z" transform="translate(-40.274 -74.23)" fill="#00c0b7"/>
    <rect id="Retângulo_13662" data-name="Retângulo 13662" width="11.113" height="0.872" transform="translate(13.801 7.878)" fill="#40566b"/>
    <rect id="Retângulo_13663" data-name="Retângulo 13663" width="11.113" height="0.872" transform="translate(13.801 10.575)" fill="#40566b"/>
    <rect id="Retângulo_13664" data-name="Retângulo 13664" width="11.113" height="0.872" transform="translate(13.801 13.271)" fill="#40566b"/>
    <rect id="Retângulo_13665" data-name="Retângulo 13665" width="11.113" height="0.872" transform="translate(13.801 15.967)" fill="#40566b"/>
    <rect id="Retângulo_13666" data-name="Retângulo 13666" width="22.282" height="0.872" transform="translate(2.633 19.984)" fill="#40566b"/>
    <rect id="Retângulo_13667" data-name="Retângulo 13667" width="12.569" height="0.872" transform="translate(2.633 22.262)" fill="#40566b"/>
    <path id="Caminho_9863" data-name="Caminho 9863" d="M13.288,15.756A4.23,4.23,0,0,1,9.06,11.529V3.364A3.4,3.4,0,0,1,14.876,1a3.376,3.376,0,0,1,1,2.357v7.165a2.429,2.429,0,0,1-4.858,0V6.139h.872v4.384a1.557,1.557,0,1,0,3.114,0V3.364A2.54,2.54,0,0,0,12.468.872,2.483,2.483,0,0,0,9.932,3.353v8.176a3.356,3.356,0,0,0,6.712,0V6.069h.872v5.459a4.232,4.232,0,0,1-4.227,4.227" transform="translate(-6.428)" fill="#00c0b7"/>
    <path id="Caminho_9864" data-name="Caminho 9864" d="M10.319,82.4V80.692a1.038,1.038,0,0,0-.6.25.805.805,0,0,0-.246.635.75.75,0,0,0,.063.326.617.617,0,0,0,.175.226,1.17,1.17,0,0,0,.268.158,2.741,2.741,0,0,0,.336.117M11.6,84.463a1.1,1.1,0,0,0,.068-.406.774.774,0,0,0-.073-.355.765.765,0,0,0-.2-.246,1.1,1.1,0,0,0-.3-.173c-.116-.046-.24-.088-.374-.126v1.836a1.5,1.5,0,0,0,.377-.073.877.877,0,0,0,.3-.173.746.746,0,0,0,.2-.284m.727-.472a1.579,1.579,0,0,1-.119.635,1.461,1.461,0,0,1-.333.479,1.546,1.546,0,0,1-.506.319,2.221,2.221,0,0,1-.645.146v.6h-.4v-.6a1.7,1.7,0,0,1-1.653-1.712h.622a1.081,1.081,0,0,0,.3.776,1.3,1.3,0,0,0,.727.36v-1.94a4.992,4.992,0,0,1-.669-.207,1.631,1.631,0,0,1-.469-.272.931.931,0,0,1-.275-.382,1.548,1.548,0,0,1-.087-.55,1.528,1.528,0,0,1,.116-.6,1.472,1.472,0,0,1,.8-.8,1.811,1.811,0,0,1,.588-.139v-.484h.4v.491a1.5,1.5,0,0,1,.944.44,2.069,2.069,0,0,1,.5,1.009H11.54a.97.97,0,0,0-.819-.849v1.8l.44.117a2.016,2.016,0,0,1,.343.129,1.585,1.585,0,0,1,.382.25,1.45,1.45,0,0,1,.309.4,1.19,1.19,0,0,1,.129.579" transform="translate(-5.567 -54.501)" fill="#40566b"/>
    <rect id="Retângulo_13668" data-name="Retângulo 13668" width="23.037" height="35.19" fill="none"/>
  </g>
</svg>
