<svg xmlns="http://www.w3.org/2000/svg" width="18.467" height="16.009" viewBox="0 0 18.467 16.009">
  <g id="Grupo_11483" data-name="Grupo 11483" transform="translate(46.309 545.832)">
    <path id="Caminho_6567" data-name="Caminho 6567" d="M-27.842-539.556l-.924,1.323-.647-.452-7.663-5.356-7.663,5.356-.645.452-.924-1.323,8.772-6.131a.808.808,0,0,1,.924,0Z" fill="#e24c5d"/>
    <path id="Caminho_6568" data-name="Caminho 6568" d="M-30.55-528.264a10.332,10.332,0,0,0-.842,2.5,4.938,4.938,0,0,0-.081.855c0,2.594,1.133,3.622,2.528,3.622s2.528-1.028,2.528-3.622a4.906,4.906,0,0,0-.081-.855,10.322,10.322,0,0,0-.842-2.494,19.788,19.788,0,0,0-1.606-2.781A19.737,19.737,0,0,0-30.55-528.264Zm9.3-1.112v8.144H-36.579v-8.144l7.663-5.356Zm-1.865,3.2v-2.751h-2.4v2.751Zm-9.125,0v-2.751h-2.4v2.751Z" transform="translate(-8.16 -9.309)" fill="#f6cf76"/>
    <path id="Caminho_6569" data-name="Caminho 6569" d="M.045-506.6A10.324,10.324,0,0,0-.8-509.09,19.787,19.787,0,0,0-2.4-511.871a19.733,19.733,0,0,0-1.605,2.78,10.333,10.333,0,0,0-.842,2.5,4.939,4.939,0,0,0-.081.855c0,2.594,1.133,3.622,2.528,3.622S.126-503.146.126-505.74A4.908,4.908,0,0,0,.045-506.6Z" transform="translate(-34.703 -28.482)" fill="#6ab528"/>
    <rect id="Retângulo_8151" data-name="Retângulo 8151" width="0.484" height="7.749" transform="translate(-37.347 -537.572)" fill="#548e20"/>
    <rect id="Retângulo_8152" data-name="Retângulo 8152" width="0.484" height="2.403" transform="translate(-38.976 -533.794) rotate(-45.021)" fill="#548e20"/>
    <rect id="Retângulo_8153" data-name="Retângulo 8153" width="0.484" height="1.66" transform="matrix(0.707, -0.707, 0.707, 0.707, -38.45, -535.596)" fill="#548e20"/>
    <rect id="Retângulo_8154" data-name="Retângulo 8154" width="2.402" height="0.484" transform="translate(-37.276 -532.438) rotate(-45)" fill="#548e20"/>
    <rect id="Retângulo_8155" data-name="Retângulo 8155" width="1.66" height="0.484" transform="translate(-37.276 -534.764) rotate(-45)" fill="#548e20"/>
    <rect id="Retângulo_8156" data-name="Retângulo 8156" width="2.401" height="2.751" transform="translate(-42.803 -538.233)" fill="#daf1f3"/>
    <rect id="Retângulo_8157" data-name="Retângulo 8157" width="2.401" height="2.751" transform="translate(-33.678 -538.233)" fill="#daf1f3"/>
  </g>
</svg>
