<svg xmlns="http://www.w3.org/2000/svg" width="17.041" height="13.626" viewBox="0 0 17.041 13.626">
  <g id="Grupo_11482" data-name="Grupo 11482" transform="translate(-5436.484 516.832)">
    <path id="Caminho_6759" data-name="Caminho 6759" d="M5465.584-515.262l-1.465.9-.714-.533-1.726.077-.6-.439,1.962-1.578,1.133.7Z" transform="translate(-20.58 0)" fill="#323954"/>
    <path id="Caminho_6760" data-name="Caminho 6760" d="M5490.189-501.662l6.465,3.989a10.974,10.974,0,0,0-1.127-.072h-3.012l-3.792-2.826Z" transform="translate(-43.721 -12.696)" fill="#323954"/>
    <path id="Caminho_6761" data-name="Caminho 6761" d="M5452.509-515.253l-.6.439-1.725-.077-.714.533L5448-513.267l-3.792,2.826h-3.014a10.652,10.652,0,0,0-1.13.073l6.47-3.99,1.465-.9,1.412-.871,1.133-.7Z" transform="translate(-2.996)" fill="#40566b"/>
    <path id="Caminho_6762" data-name="Caminho 6762" d="M5499.808-468.3v4.189h-4.458a4.641,4.641,0,0,0-1.745-1.639v-2.55Z" transform="translate(-47.806 -40.616)" fill="#e24c5d"/>
    <path id="Caminho_6763" data-name="Caminho 6763" d="M5452-468.3v2.565a4.694,4.694,0,0,0-1.712,1.624h-4.461V-468.3Z" transform="translate(-7.817 -40.616)" fill="#00c0b7"/>
    <rect id="Retângulo_8315" data-name="Retângulo 8315" width="1.808" height="0.326" transform="matrix(0.707, -0.707, 0.707, 0.707, 5439.519, -506.791)" fill="#fff"/>
    <rect id="Retângulo_8316" data-name="Retângulo 8316" width="3.76" height="0.326" transform="translate(5439.781 -505.462) rotate(-45.018)" fill="#fff"/>
    <rect id="Retângulo_8317" data-name="Retângulo 8317" width="1.808" height="0.326" transform="translate(5447.825 -506.791) rotate(-45.002)" fill="#fff"/>
    <rect id="Retângulo_8318" data-name="Retângulo 8318" width="3.76" height="0.326" transform="translate(5448.087 -505.463) rotate(-45)" fill="#fff"/>
    <path id="Caminho_6764" data-name="Caminho 6764" d="M5452.6-477.641H5437.41a.925.925,0,0,0-.925.925v5.358a.954.954,0,0,0,.951.952h5.857s1.091-1.81,1.714-1.81,1.712,1.81,1.712,1.81h5.854a.956.956,0,0,0,.952-.952v-5.358A.925.925,0,0,0,5452.6-477.641Zm-8.419,4.088a4.694,4.694,0,0,0-1.712,1.624h-4.462v-4.189h6.174Zm7.821,1.624h-4.458a4.641,4.641,0,0,0-1.745-1.639v-2.55h6.2Z" transform="translate(0 -32.8)" fill="#40566b"/>
  </g>
</svg>
