<?xml version="1.0" encoding="UTF-8"?><svg xmlns="http://www.w3.org/2000/svg" xmlns:xlink="http://www.w3.org/1999/xlink" width="810" zoomAndPan="magnify" viewBox="0 0 810 809.999993" height="809.999993" preserveAspectRatio="xMidYMid meet" version="1.0"><rect x="-81" width="972" fill="rgb(100%, 100%, 100%)" y="-80.999999" height="971.999992" fill-opacity="1"/><rect x="-81" width="972" fill="rgb(100%, 100%, 100%)" y="-80.999999" height="971.999992" fill-opacity="1"/><rect x="-81" width="972" fill="rgb(100%, 100%, 100%)" y="-80.999999" height="971.999992" fill-opacity="1"/><path fill="rgb(69.40918%, 22.349548%, 84.709167%)" d="M 122.644531 795.847656 L 742.613281 795.847656 C 772.382812 795.847656 796.523438 771.710938 796.523438 741.9375 L 796.523438 121.972656 L 122.644531 121.972656 Z M 122.644531 795.847656 " fill-opacity="1" fill-rule="nonzero"/><path fill="rgb(100%, 78.819275%, 19.219971%)" d="M 473.0625 351.089844 L 473.0625 270.226562 C 473.0625 240.453125 448.921875 216.316406 419.152344 216.316406 L 14.824219 216.316406 L 68.734375 283.703125 L 68.734375 351.089844 C 68.734375 380.863281 92.875 405 122.644531 405 L 419.152344 405 C 448.921875 405 473.0625 380.863281 473.0625 351.089844 Z M 419.152344 283.703125 L 351.765625 283.703125 Z M 324.808594 283.703125 L 257.421875 283.703125 Z M 230.464844 283.703125 L 122.644531 283.703125 Z M 122.644531 337.613281 L 190.035156 337.613281 Z M 419.152344 337.613281 L 216.988281 337.613281 Z M 419.152344 337.613281 " fill-opacity="1" fill-rule="nonzero"/><path fill="rgb(29.40979%, 86.669922%, 86.669922%)" d="M 473.0625 647.59375 L 473.0625 566.730469 C 473.0625 536.957031 448.921875 512.820312 419.152344 512.820312 L 14.824219 512.820312 L 68.734375 580.207031 L 68.734375 647.59375 C 68.734375 677.367188 92.875 701.503906 122.644531 701.503906 L 419.152344 701.503906 C 448.921875 701.503906 473.0625 677.367188 473.0625 647.59375 Z M 419.152344 580.207031 L 351.765625 580.207031 Z M 324.808594 580.207031 L 122.644531 580.207031 Z M 122.644531 634.117188 L 190.035156 634.117188 Z M 216.988281 634.117188 L 284.375 634.117188 Z M 419.152344 634.117188 L 311.332031 634.117188 Z M 419.152344 634.117188 " fill-opacity="1" fill-rule="nonzero"/><path fill="rgb(25.099182%, 41.569519%, 94.898987%)" d="M 122.644531 14.152344 L 796.523438 14.152344 L 796.523438 121.972656 L 122.644531 121.972656 Z M 122.644531 14.152344 " fill-opacity="1" fill-rule="nonzero"/><path fill="rgb(21.958923%, 36.859131%, 83.918762%)" d="M 459.585938 14.152344 L 796.523438 14.152344 L 796.523438 121.972656 L 459.585938 121.972656 Z M 459.585938 14.152344 " fill-opacity="1" fill-rule="nonzero"/><path fill="rgb(61.178589%, 19.60907%, 74.899292%)" d="M 459.585938 795.847656 L 742.613281 795.847656 C 772.382812 795.847656 796.523438 771.710938 796.523438 741.9375 L 796.523438 121.972656 L 459.585938 121.972656 Z M 459.585938 795.847656 " fill-opacity="1" fill-rule="nonzero"/><path fill="rgb(90.19928%, 70.979309%, 17.248535%)" d="M 419.152344 216.316406 L 257.421875 216.316406 L 257.421875 405 L 419.152344 405 C 448.921875 405 473.0625 380.863281 473.0625 351.089844 L 473.0625 270.226562 C 473.0625 240.453125 448.921875 216.316406 419.152344 216.316406 Z M 419.152344 216.316406 " fill-opacity="1" fill-rule="nonzero"/><path fill="rgb(25.878906%, 76.078796%, 76.078796%)" d="M 419.152344 512.820312 L 257.421875 512.820312 L 257.421875 701.503906 L 419.152344 701.503906 C 448.921875 701.503906 473.0625 677.367188 473.0625 647.59375 L 473.0625 566.730469 C 473.0625 536.957031 448.921875 512.820312 419.152344 512.820312 Z M 419.152344 512.820312 " fill-opacity="1" fill-rule="nonzero"/><path fill="rgb(16.468811%, 5.488586%, 32.939148%)" d="M 163.078125 54.585938 L 190.035156 54.585938 L 190.035156 81.539062 L 163.078125 81.539062 Z M 163.078125 54.585938 " fill-opacity="1" fill-rule="nonzero"/><path fill="rgb(16.468811%, 5.488586%, 32.939148%)" d="M 216.988281 54.585938 L 243.945312 54.585938 L 243.945312 81.539062 L 216.988281 81.539062 Z M 216.988281 54.585938 " fill-opacity="1" fill-rule="nonzero"/><path fill="rgb(16.468811%, 5.488586%, 32.939148%)" d="M 270.898438 54.585938 L 297.855469 54.585938 L 297.855469 81.539062 L 270.898438 81.539062 Z M 270.898438 54.585938 " fill-opacity="1" fill-rule="nonzero"/><path fill="rgb(16.468811%, 5.488586%, 32.939148%)" d="M 500.015625 54.585938 L 756.089844 54.585938 L 756.089844 81.539062 L 500.015625 81.539062 Z M 500.015625 54.585938 " fill-opacity="1" fill-rule="nonzero"/><path fill="rgb(16.468811%, 5.488586%, 32.939148%)" d="M 540.449219 202.835938 L 756.089844 202.835938 L 756.089844 229.792969 L 540.449219 229.792969 Z M 540.449219 202.835938 " fill-opacity="1" fill-rule="nonzero"/><path fill="rgb(16.468811%, 5.488586%, 32.939148%)" d="M 648.269531 256.746094 L 756.089844 256.746094 L 756.089844 283.703125 L 648.269531 283.703125 Z M 648.269531 256.746094 " fill-opacity="1" fill-rule="nonzero"/><path fill="rgb(16.468811%, 5.488586%, 32.939148%)" d="M 648.269531 310.65625 L 756.089844 310.65625 L 756.089844 337.613281 L 648.269531 337.613281 Z M 648.269531 310.65625 " fill-opacity="1" fill-rule="nonzero"/><path fill="rgb(16.468811%, 5.488586%, 32.939148%)" d="M 648.269531 364.566406 L 756.089844 364.566406 L 756.089844 391.523438 L 648.269531 391.523438 Z M 648.269531 364.566406 " fill-opacity="1" fill-rule="nonzero"/><path fill="rgb(16.468811%, 5.488586%, 32.939148%)" d="M 540.449219 418.476562 L 756.089844 418.476562 L 756.089844 445.433594 L 540.449219 445.433594 Z M 540.449219 418.476562 " fill-opacity="1" fill-rule="nonzero"/><path fill="rgb(16.468811%, 5.488586%, 32.939148%)" d="M 540.449219 634.117188 L 756.089844 634.117188 L 756.089844 661.074219 L 540.449219 661.074219 Z M 540.449219 634.117188 " fill-opacity="1" fill-rule="nonzero"/><path fill="rgb(16.468811%, 5.488586%, 32.939148%)" d="M 648.269531 472.386719 L 756.089844 472.386719 L 756.089844 499.34375 L 648.269531 499.34375 Z M 648.269531 472.386719 " fill-opacity="1" fill-rule="nonzero"/><path fill="rgb(16.468811%, 5.488586%, 32.939148%)" d="M 648.269531 526.296875 L 756.089844 526.296875 L 756.089844 553.253906 L 648.269531 553.253906 Z M 648.269531 526.296875 " fill-opacity="1" fill-rule="nonzero"/><path fill="rgb(16.468811%, 5.488586%, 32.939148%)" d="M 648.269531 580.207031 L 756.089844 580.207031 L 756.089844 607.164062 L 648.269531 607.164062 Z M 648.269531 580.207031 " fill-opacity="1" fill-rule="nonzero"/><path fill="rgb(16.468811%, 5.488586%, 32.939148%)" d="M 648.269531 688.027344 L 756.089844 688.027344 L 756.089844 714.984375 L 648.269531 714.984375 Z M 648.269531 688.027344 " fill-opacity="1" fill-rule="nonzero"/><path fill="rgb(16.468811%, 5.488586%, 32.939148%)" d="M 796.523438 0.675781 L 122.644531 0.675781 C 115.191406 0.675781 109.167969 6.710938 109.167969 14.152344 L 109.167969 202.835938 L 14.824219 202.835938 C 9.636719 202.835938 4.933594 205.800781 2.683594 210.480469 C 0.445312 215.140625 1.066406 220.695312 4.300781 224.738281 L 55.257812 288.433594 L 55.257812 351.089844 C 55.257812 383.625 78.453125 410.847656 109.167969 417.117188 L 109.167969 499.34375 L 14.824219 499.34375 C 9.636719 499.34375 4.933594 502.308594 2.683594 506.984375 C 0.445312 511.648438 1.066406 517.199219 4.300781 521.242188 L 55.257812 584.9375 L 55.257812 647.59375 C 55.257812 680.128906 78.453125 707.355469 109.167969 713.621094 L 109.167969 795.847656 C 109.167969 803.289062 115.191406 809.324219 122.644531 809.324219 L 742.613281 809.324219 C 779.769531 809.324219 810 779.097656 810 741.9375 L 810 14.152344 C 810 6.710938 803.976562 0.675781 796.523438 0.675781 Z M 136.125 27.628906 L 783.046875 27.628906 L 783.046875 108.496094 L 136.125 108.496094 Z M 82.214844 351.089844 L 82.214844 283.703125 C 82.214844 280.644531 81.175781 277.675781 79.261719 275.277344 L 42.871094 229.792969 L 419.152344 229.792969 C 441.441406 229.792969 459.585938 247.933594 459.585938 270.226562 L 459.585938 351.089844 C 459.585938 373.382812 441.441406 391.523438 419.152344 391.523438 L 122.644531 391.523438 C 100.355469 391.523438 82.214844 373.382812 82.214844 351.089844 Z M 82.214844 647.59375 L 82.214844 580.207031 C 82.214844 577.148438 81.175781 574.183594 79.261719 571.785156 L 42.871094 526.296875 L 419.152344 526.296875 C 441.441406 526.296875 459.585938 544.4375 459.585938 566.730469 L 459.585938 647.59375 C 459.585938 669.886719 441.441406 688.027344 419.152344 688.027344 L 122.644531 688.027344 C 100.355469 688.027344 82.214844 669.886719 82.214844 647.59375 Z M 742.613281 782.371094 L 136.125 782.371094 L 136.125 714.984375 L 419.152344 714.984375 C 456.308594 714.984375 486.539062 684.753906 486.539062 647.59375 L 486.539062 566.730469 C 486.539062 529.574219 456.308594 499.34375 419.152344 499.34375 L 136.125 499.34375 L 136.125 418.476562 L 419.152344 418.476562 C 456.308594 418.476562 486.539062 388.246094 486.539062 351.089844 L 486.539062 270.226562 C 486.539062 233.066406 456.308594 202.835938 419.152344 202.835938 L 136.125 202.835938 L 136.125 135.449219 L 783.046875 135.449219 L 783.046875 741.9375 C 783.046875 764.230469 764.902344 782.371094 742.613281 782.371094 Z M 742.613281 782.371094 " fill-opacity="1" fill-rule="nonzero"/><path fill="rgb(16.468811%, 5.488586%, 32.939148%)" d="M 122.644531 270.226562 L 230.464844 270.226562 L 230.464844 297.179688 L 122.644531 297.179688 Z M 122.644531 270.226562 " fill-opacity="1" fill-rule="nonzero"/><path fill="rgb(16.468811%, 5.488586%, 32.939148%)" d="M 257.421875 270.226562 L 324.808594 270.226562 L 324.808594 297.179688 L 257.421875 297.179688 Z M 257.421875 270.226562 " fill-opacity="1" fill-rule="nonzero"/><path fill="rgb(16.468811%, 5.488586%, 32.939148%)" d="M 351.765625 270.226562 L 419.152344 270.226562 L 419.152344 297.179688 L 351.765625 297.179688 Z M 351.765625 270.226562 " fill-opacity="1" fill-rule="nonzero"/><path fill="rgb(16.468811%, 5.488586%, 32.939148%)" d="M 122.644531 324.136719 L 190.035156 324.136719 L 190.035156 351.089844 L 122.644531 351.089844 Z M 122.644531 324.136719 " fill-opacity="1" fill-rule="nonzero"/><path fill="rgb(16.468811%, 5.488586%, 32.939148%)" d="M 216.988281 324.136719 L 419.152344 324.136719 L 419.152344 351.089844 L 216.988281 351.089844 Z M 216.988281 324.136719 " fill-opacity="1" fill-rule="nonzero"/><path fill="rgb(16.468811%, 5.488586%, 32.939148%)" d="M 311.332031 620.640625 L 419.152344 620.640625 L 419.152344 647.59375 L 311.332031 647.59375 Z M 311.332031 620.640625 " fill-opacity="1" fill-rule="nonzero"/><path fill="rgb(16.468811%, 5.488586%, 32.939148%)" d="M 216.988281 620.640625 L 284.375 620.640625 L 284.375 647.59375 L 216.988281 647.59375 Z M 216.988281 620.640625 " fill-opacity="1" fill-rule="nonzero"/><path fill="rgb(16.468811%, 5.488586%, 32.939148%)" d="M 122.644531 620.640625 L 190.035156 620.640625 L 190.035156 647.59375 L 122.644531 647.59375 Z M 122.644531 620.640625 " fill-opacity="1" fill-rule="nonzero"/><path fill="rgb(16.468811%, 5.488586%, 32.939148%)" d="M 351.765625 566.730469 L 419.152344 566.730469 L 419.152344 593.6875 L 351.765625 593.6875 Z M 351.765625 566.730469 " fill-opacity="1" fill-rule="nonzero"/><path fill="rgb(16.468811%, 5.488586%, 32.939148%)" d="M 122.644531 566.730469 L 324.808594 566.730469 L 324.808594 593.6875 L 122.644531 593.6875 Z M 122.644531 566.730469 " fill-opacity="1" fill-rule="nonzero"/></svg>