<svg xmlns="http://www.w3.org/2000/svg" width="17.33" height="16.871" viewBox="0 0 17.33 16.871">
  <g id="Grupo_11475" data-name="Grupo 11475" transform="translate(-2750.568 2532.5)">
    <g id="Grupo_6048" data-name="Grupo 6048" transform="translate(1976.507 2056.726)">
      <rect id="Retângulo_8323" data-name="Retângulo 8323" width="2.109" height="0.45" transform="matrix(0.616, -0.788, 0.788, 0.616, 777.43, -4572.632)" fill="#40566b"/>
      <rect id="Retângulo_8324" data-name="Retângulo 8324" width="0.45" height="2.109" transform="translate(786.358 -4574.018) rotate(-37.982)" fill="#40566b"/>
      <path id="Caminho_6765" data-name="Caminho 6765" d="M831.786-4532.056a.558.558,0,0,1,.557.558.558.558,0,0,1-.557.559h-9.555v-1.116h9.555Z" transform="translate(-40.952 -48.604)" fill="#d2edef"/>
      <path id="Caminho_6766" data-name="Caminho 6766" d="M786.235-4522.962v-1.644h9.239c0,3.079-.9,5.752-3.983,5.752h-7.63c-3.081,0-3.971-2.673-3.971-5.752h3.123v2.875h3.221Z" transform="translate(-4.956 -54.938)" fill="#6ab528"/>
      <rect id="Retângulo_8325" data-name="Retângulo 8325" width="3.221" height="1.232" transform="translate(778.057 -4577.9)" fill="#e24c5d"/>
      <path id="Caminho_6767" data-name="Caminho 6767" d="M803.953-4530.94v1.644h-3.221v-2.76h3.221Z" transform="translate(-22.674 -48.604)" fill="#e24c5d"/>
      <path id="Caminho_6768" data-name="Caminho 6768" d="M778.057-4532.056v1.116h-3.439a.558.558,0,0,1-.557-.559.558.558,0,0,1,.557-.558Z" transform="translate(0 -48.604)" fill="#d2edef"/>
      <path id="Caminho_6769" data-name="Caminho 6769" d="M860.72-4580.66h-.45v-6.392a1.726,1.726,0,0,0-1.725-1.725,1.724,1.724,0,0,0-1.721,1.619c0,.037,0,.07,0,.105h-.45c0-.046,0-.091,0-.135a2.173,2.173,0,0,1,2.169-2.039,2.176,2.176,0,0,1,2.174,2.174Z" transform="translate(-69.978)" fill="#40566b"/>
      <rect id="Retângulo_8326" data-name="Retângulo 8326" width="3.245" height="0.45" transform="translate(778.057 -4578.125)" fill="#f6cf76"/>
      <path id="Caminho_6770" data-name="Caminho 6770" d="M843.958-4577.634a1.8,1.8,0,0,1,.821,2.34l-3.278-1.48a1.8,1.8,0,0,1,2.379-.9A.768.768,0,0,1,843.958-4577.634Z" transform="translate(-57.335 -9.686)" fill="#548e20"/>
    </g>
  </g>
</svg>
