<svg xmlns="http://www.w3.org/2000/svg" width="20.553" height="21.351" viewBox="0 0 20.553 21.351">
  <g id="Grupo_11474" data-name="Grupo 11474" transform="translate(-2750.568 2614)">
    <path id="Caminho_6617" data-name="Caminho 6617" d="M1507.051-4585.356v17.974h-1.343v-16.631h-9.464v16.631H1494.9v-17.974Z" transform="translate(1259.869 1971.356)" fill="#cd4160"/>
    <path id="Caminho_6618" data-name="Caminho 6618" d="M1511.365-4578.356v16.631H1501.9v-16.631Zm-2.273,5.339v-3.027h-4.917v3.027Zm-4.232,4.85a.686.686,0,0,0-.685-.687.686.686,0,0,0-.687.687.686.686,0,0,0,.687.685A.685.685,0,0,0,1504.859-4568.167Z" transform="translate(1254.212 1965.699)" fill="#e24c5d"/>
    <rect id="Ret창ngulo_8221" data-name="Ret창ngulo 8221" width="4.917" height="3.027" transform="translate(2758.386 -2610.345)" fill="#d2edef"/>
    <path id="Caminho_6619" data-name="Caminho 6619" d="M1501.874-4491.666v3.07H1486.5v-3.07h15.373Z" transform="translate(1266.658 1895.64)" fill="#d2edef"/>
    <path id="Caminho_6620" data-name="Caminho 6620" d="M1511.543-4528.14a.686.686,0,0,1-.685.685.686.686,0,0,1-.687-.685.686.686,0,0,1,.687-.687A.686.686,0,0,1,1511.543-4528.14Z" transform="translate(1247.529 1925.671)" fill="#40566b"/>
    <rect id="Ret창ngulo_8222" data-name="Ret창ngulo 8222" width="20.553" height="0.576" transform="translate(2750.568 -2593.225)" fill="#40566b"/>
  </g>
</svg>
