<svg xmlns="http://www.w3.org/2000/svg" width="16.607" height="22.425" viewBox="0 0 16.607 22.425">
  <g id="Grupo_11491" data-name="Grupo 11491" transform="translate(-2750.568 2463.212)">
    <g id="Grupo_6108" data-name="Grupo 6108" transform="translate(2298.484 -54.316)">
      <path id="Caminho_6692" data-name="Caminho 6692" d="M471.737-2363.406v2.561l-12.829,10.81h-3.052v-4.457h5.093v-4.457h1.112l0,.006h2.2l0-.006h2.225v-4.457Z" transform="translate(-3.045 -36.725)" fill="#f6cf76"/>
      <rect id="Retângulo_8274" data-name="Retângulo 8274" width="15.881" height="0.578" transform="translate(452.811 -2387.049)" fill="#f6cf76"/>
      <path id="Caminho_6693" data-name="Caminho 6693" d="M463.956-2402.929a.6.6,0,0,1-.6.6h-2.588a.594.594,0,0,1-.424-.175l-1.53-1.53v2.52h-1.222v.385h3.253a1.1,1.1,0,0,1,1.1,1.1l-.732,4.357h-2.2l.732-3.26h-2.634a2.215,2.215,0,0,1-2.208-2.079v-3.272l-1.622,1.621v2.883a.6.6,0,0,1-.6.6.6.6,0,0,1-.6-.6v-3.129a.6.6,0,0,1,.175-.424l2.4-2.4a.6.6,0,0,1,.424-.175H456.1a1.589,1.589,0,0,1-.829-1.4,1.588,1.588,0,0,1,1.588-1.588,1.588,1.588,0,0,1,1.59,1.588,1.589,1.589,0,0,1-.83,1.4h.766a.6.6,0,0,1,.422.175l2.21,2.208h2.339A.6.6,0,0,1,463.956-2402.929Z" transform="translate(0)" fill="#6ab528"/>
      <path id="Caminho_6694" data-name="Caminho 6694" d="M463.666-2361.657v.847l-.73,7.715h2.195l.736-7.33A2.6,2.6,0,0,1,463.666-2361.657Z" transform="translate(-8.761 -38.137)" fill="#56981c"/>
    </g>
  </g>
</svg>
