<svg id="Grupo_11477" data-name="Grupo 11477" xmlns="http://www.w3.org/2000/svg" width="20.662" height="17.823" viewBox="0 0 20.662 17.823">
  <rect id="Retângulo_7919" data-name="Retângulo 7919" width="1.423" height="0.851" transform="translate(1.949 16.973)" fill="#40566b"/>
  <rect id="Retângulo_7920" data-name="Retângulo 7920" width="1.423" height="0.851" transform="translate(17.29 16.973)" fill="#40566b"/>
  <path id="Caminho_6395" data-name="Caminho 6395" d="M904.3-1437.771v2.158c-.031,0-.062,0-.093,0a1.372,1.372,0,0,0-1.372,1.372v.893H887.667v-.893a1.372,1.372,0,0,0-1.372-1.372c-.031,0-.062,0-.093,0v-2.158a1.845,1.845,0,0,1,1.845-1.845H902.46A1.845,1.845,0,0,1,904.3-1437.771Z" transform="translate(-884.922 1444.864)" fill="#e24c5d"/>
  <path id="Caminho_6396" data-name="Caminho 6396" d="M880.594-1417.806a1.372,1.372,0,0,1,1.372,1.371v3.609h15.172v-3.609a1.372,1.372,0,0,1,1.372-1.371,1.373,1.373,0,0,1,1.373,1.371v4.982a1.374,1.374,0,0,1-.719,1.207,1.381,1.381,0,0,1-.655.165H880.594a1.374,1.374,0,0,1-1.373-1.372v-4.982A1.373,1.373,0,0,1,880.594-1417.806Z" transform="translate(-879.221 1427.053)" fill="#f6cf76"/>
  <rect id="Retângulo_7921" data-name="Retângulo 7921" width="7.586" height="2.716" transform="translate(2.745 11.512)" fill="#fea856"/>
  <rect id="Retângulo_7922" data-name="Retângulo 7922" width="7.586" height="2.716" transform="translate(10.331 11.512)" fill="#fea856"/>
  <rect id="Retângulo_7923" data-name="Retângulo 7923" width="5.655" height="2.761" transform="translate(3.149 0)" fill="#6ab528"/>
  <rect id="Retângulo_7924" data-name="Retângulo 7924" width="5.655" height="2.761" transform="translate(11.859 0)" fill="#6ab528"/>
</svg>
