<svg xmlns="http://www.w3.org/2000/svg" width="20.688" height="13.74" viewBox="0 0 20.688 13.74">
  <g id="Grupo_11478" data-name="Grupo 11478" transform="translate(-952.25 4559.496)">
    <path id="Caminho_6551" data-name="Caminho 6551" d="M975.35-4545a.578.578,0,0,1,.577.575v2.546h-5.685v-2.546a.578.578,0,0,1,.577-.575Z" transform="translate(-14.544 -11.715)" fill="#d2edef"/>
    <path id="Caminho_6552" data-name="Caminho 6552" d="M1018.227-4542.027v.144h-5.685v-2.546a.578.578,0,0,1,.577-.575h4.532a.577.577,0,0,1,.577.575v2.4Z" transform="translate(-48.739 -11.715)" fill="#d2edef"/>
    <rect id="Ret창ngulo_8136" data-name="Ret창ngulo 8136" width="1.244" height="2.822" transform="translate(971.693 -4548.578)" fill="#fea856"/>
    <path id="Caminho_6553" data-name="Caminho 6553" d="M972.936-4512.145v1.845H952.251v-1.845Z" transform="translate(0 -38.278)" fill="#f6cf76"/>
    <path id="Caminho_6554" data-name="Caminho 6554" d="M972.937-4525.541H952.251v-2.086a1.09,1.09,0,0,1,1.088-1.088h18.507a1.091,1.091,0,0,1,1.09,1.088v2.086Z" transform="translate(0 -24.883)" fill="#40566b"/>
    <path id="Caminho_6555" data-name="Caminho 6555" d="M963.354-4553.742v.144h-1.633v-4.809a1.092,1.092,0,0,1,1.088-1.089h14.878a1.093,1.093,0,0,1,1.09,1.089v4.809h-1.635v-2.546a.577.577,0,0,0-.577-.575h-4.532a.578.578,0,0,0-.577.575v2.546h-2.42v-2.546a.578.578,0,0,0-.577-.575H963.93a.578.578,0,0,0-.577.575v2.4Z" transform="translate(-7.656 0)" fill="#6ab528"/>
    <rect id="Ret창ngulo_8137" data-name="Ret창ngulo 8137" width="1.242" height="2.822" transform="translate(952.251 -4548.578)" fill="#fea856"/>
  </g>
</svg>
